<?xml version="1.0" encoding="UTF-8" standalone="no"?>
<!-- Created with Inkscape (http://www.inkscape.org/) -->
<svg
   xmlns:dc="http://purl.org/dc/elements/1.1/"
   xmlns:cc="http://web.resource.org/cc/"
   xmlns:rdf="http://www.w3.org/1999/02/22-rdf-syntax-ns#"
   xmlns:svg="http://www.w3.org/2000/svg"
   xmlns="http://www.w3.org/2000/svg"
   xmlns:sodipodi="http://sodipodi.sourceforge.net/DTD/sodipodi-0.dtd"
   xmlns:inkscape="http://www.inkscape.org/namespaces/inkscape"
   id="svg2"
   sodipodi:version="0.32"
   inkscape:version="0.45+devel"
   width="203.11209"
   height="280.16446"
   version="1.0"
   sodipodi:docbase="/home/cworth/src/slippy"
   sodipodi:docname="behdad.svg"
   inkscape:output_extension="org.inkscape.output.svg.inkscape"
   sodipodi:modified="true">
  <metadata
     id="metadata7">
    <rdf:RDF>
      <cc:Work
         rdf:about="">
        <dc:format>image/svg+xml</dc:format>
        <dc:type
           rdf:resource="http://purl.org/dc/dcmitype/StillImage" />
      </cc:Work>
    </rdf:RDF>
  </metadata>
  <defs
     id="defs5" />
  <sodipodi:namedview
     inkscape:cy="182.38905"
     inkscape:cx="299.78914"
     inkscape:zoom="1.2114286"
     inkscape:window-height="587"
     inkscape:window-width="796"
     inkscape:pageshadow="2"
     inkscape:pageopacity="0.0"
     guidetolerance="10.0"
     gridtolerance="10.0"
     objecttolerance="10.0"
     borderopacity="1.0"
     bordercolor="#666666"
     pagecolor="#ffffff"
     id="base"
     inkscape:window-x="5"
     inkscape:window-y="32"
     inkscape:current-layer="svg2" />
  <rect
     fill="white"
     width="132"
     height="74"
     x="34"
     y="95" />
  <g
     id="g2161"
     transform="translate(-71.057225,-38.726489)">
    <path
       style="fill:#4fa9cf"
       d="M 99.295821,317.24968 C 102.7299,315.84201 103.03205,315.42242 102.46637,312.84686 C 102.02447,310.83491 102.23098,309.99551 103.17054,309.98469 C 103.90175,309.97627 105.1542,309.55553 105.95379,309.04972 C 107.19848,308.26234 107.2107,307.76222 106.03878,305.57247 C 104.79518,303.24878 104.9116,302.6753 107.3117,299.30205 C 110.47211,294.86023 109.61665,293.92243 103.05465,294.6353 C 97.513472,295.23726 92.566947,292.85987 89.25,288.00051 C 86.228217,283.57356 86.12647,275.38023 89.047168,271.66716 C 90.17311,270.23576 91.48142,266.68757 91.954522,263.78231 C 94.826694,246.14461 101.52382,228.74681 110.34788,216 L 112.77078,212.5 L 105.34488,204.71856 C 101.26063,200.43876 95.903627,193.8217 93.440427,190.01399 C 90.977226,186.20627 87.766186,182.50792 86.304782,181.79543 C 83.615478,180.4843 82.923849,178.95917 79.476579,166.73838 C 78.582691,163.56949 76.713013,159.62395 75.321739,157.97052 C 73.47882,155.78033 72.961261,154.29048 73.415127,152.48214 C 73.873655,150.65522 73.637115,150 72.519052,150 C 70.605049,150 70.564478,148.60634 72.433329,147.05533 C 74.43622,145.39308 76.037189,137.22801 74.930806,134.31801 C 74.437962,133.02173 74.315011,129.27952 74.657581,126.00198 C 75.087783,121.88604 74.893247,119.5763 74.028637,118.53451 C 73.007029,117.30354 73.257076,115.82657 75.388419,110.50257 C 76.824789,106.91458 78,103.47793 78,102.86557 C 78,102.25321 79.842158,98.995446 82.093685,95.626095 L 86.187371,89.5 L 83.093685,88.60534 C 81.392158,88.113276 80,87.353974 80,86.918002 C 80,86.482029 83.0375,84.634627 86.75,82.812662 C 92.832047,79.827808 97.88428,75.746416 97.968399,73.75 C 97.985779,73.3375 96.875,73 95.5,73 C 94.125,73 93,72.615276 93,72.145057 C 93,70.607339 103.55269,61.268131 107.57337,59.247519 C 109.73302,58.162179 113.975,56.482087 117,55.513981 C 120.025,54.545875 123.89407,52.914778 125.59793,51.88932 C 128.13257,50.363865 135.40202,47.403647 143.8998,44.436559 C 144.97371,44.061591 144.7409,43.340019 142.8998,41.337149 L 140.5,38.726494 L 148.5,39.605232 C 152.9,40.088537 166.87973,40.481621 179.56607,40.47875 L 202.63214,40.47353 L 202.21756,42.642215 C 201.82806,44.679774 202.27754,44.847056 209.6515,45.408892 C 218.85692,46.110271 228.95295,48.415053 233.86995,50.937621 L 237.36053,52.728397 L 230.58583,53.453905 C 224.3336,54.123462 223.96884,54.289873 225.85603,55.611713 C 226.98072,56.399477 231.15298,58.367447 235.12772,59.984978 C 239.10246,61.602509 243.05958,63.631013 243.92134,64.492764 C 245.34376,65.91519 245.28363,66.113069 243.26881,66.639957 C 241.33396,67.145931 241.6844,67.536737 246.00254,69.688555 C 251.02871,72.193205 257.97461,79.101855 261.36306,84.966726 L 263.22613,88.191387 L 261.05762,87.03084 C 257.0474,84.884632 256.81809,86.51918 260.42696,91.526303 C 267.67622,101.58429 270.00777,105.63762 272.06541,111.7594 L 274.16931,118.01879 L 272.08466,122.32512 C 269.4461,127.77566 269.41331,134.42637 272,139.5 C 274.43945,144.28484 274.75223,150.50263 272.51019,149.64229 C 271.52461,149.26408 270.8671,149.82016 270.56748,151.2853 C 268.38685,161.94865 267.2871,165.52907 264.05128,172.5 C 258.35819,184.76462 251.55651,194.64514 242.22992,204.19902 L 233.73784,212.89804 L 237.23704,218.19902 C 245.98088,231.4452 252.00456,246.29047 255.12652,262.28739 C 255.79337,265.70432 257.21271,269.69066 258.28059,271.14592 C 259.34848,272.60117 260.44856,275.79996 260.7252,278.25435 C 261.76869,287.51216 255.0832,294.49133 245.15287,294.51073 C 238.94103,294.52286 238.13926,295.43483 240.43588,299.87601 C 241.60457,302.136 241.74451,303.54179 240.99662,305.5089 C 239.63251,309.09677 239.74696,311 241.32681,311 C 242.21217,311 242.51644,311.9346 242.24133,313.80905 C 241.92077,315.99318 242.34861,316.86798 244.16453,317.74137 C 245.91407,318.58283 227.55827,318.85724 171,318.83514 C 101.70518,318.80807 95.81197,318.67776 99.295821,317.24968 z M 147.76791,178.28547 C 146.26526,178.0573 143.56526,178.05271 141.76791,178.27527 C 139.97056,178.49783 141.2,178.68452 144.5,178.69013 C 147.8,178.69574 149.27056,178.51365 147.76791,178.28547 z M 207.75,178.28375 C 206.2375,178.05462 203.7625,178.05462 202.25,178.28375 C 200.7375,178.51287 201.975,178.70034 205,178.70034 C 208.025,178.70034 209.2625,178.51287 207.75,178.28375 z M 164.65217,169.65217 L 170,164.30435 L 170,146.96663 C 170,123.88551 170.96588,125 150.96253,125 L 136.27368,125 L 131.5669,130.03193 C 124.97026,137.08427 121.62161,144.79159 121.5878,153 C 121.55428,161.1376 123.26452,166.18015 127.73705,171.13071 L 131.23272,175 L 145.26854,175 L 159.30435,175 L 164.65217,169.65217 z M 154.36163,153.5 C 152.9524,149.82763 157.01291,146.58434 159.68032,149.25175 C 161.90325,151.47468 160.50551,155 157.40123,155 C 156.04603,155 154.67821,154.325 154.36163,153.5 z M 221.44742,171.88012 C 226.50149,165.8737 227.46164,163.02854 227.4814,154 C 227.50399,143.67765 224.84511,137.08513 217.70095,129.75 L 213.07461,125 L 198.10988,125 L 183.14516,125 L 181.07258,127.63486 C 179.16988,130.05375 179,131.59515 179,146.44058 C 179,162.13218 179.07449,162.71352 181.51337,166.05572 C 182.89572,167.95007 185.48322,170.72539 187.26337,172.2231 C 190.44895,174.90325 190.72334,174.94662 204.66111,174.9731 L 218.82221,175 L 221.44742,171.88012 z M 186.48306,152.94663 C 185.52854,149.93919 188.34662,147.09809 190.76876,148.62594 C 191.72094,149.22656 192.5,150.79393 192.5,152.10899 C 192.5,155.45947 187.50147,156.15534 186.48306,152.94663 z M 175.07548,153.08789 C 175.75519,154.16164 175.97304,153.96087 175.98469,152.25 C 175.99381,150.90986 175.39343,150 174.5,150 C 173.44642,150 173.04053,150.96725 173.13618,153.25 C 173.24594,155.86931 173.36059,156.03191 173.72698,154.08789 C 174.07875,152.22142 174.38379,151.99521 175.07548,153.08789 z M 175.98469,142.75 C 175.97455,139.27415 175.6673,137.9772 175.07548,138.91211 C 174.38379,140.00479 174.07875,139.77858 173.72698,137.91211 C 173.47694,136.58545 173.21108,138.3125 173.13618,141.75 C 173.02834,146.69941 173.31214,148 174.5,148 C 175.6448,148 175.99637,146.75681 175.98469,142.75 z M 154.7277,121.2702 C 152.65293,121.05373 149.50293,121.05736 147.7277,121.27827 C 145.95246,121.49918 147.65,121.6763 151.5,121.67186 C 155.35,121.66742 156.80246,121.48668 154.7277,121.2702 z M 200.7277,121.2702 C 198.65293,121.05373 195.50293,121.05736 193.7277,121.27827 C 191.95246,121.49918 193.65,121.6763 197.5,121.67186 C 201.35,121.66742 202.80246,121.48668 200.7277,121.2702 z"
       id="path2173" />
    <path
       style="fill:#fd9700"
       d="M 99.684584,317.44225 C 101.4361,316.67522 106.6111,315.02443 111.18458,313.77382 C 118.50939,311.77088 121.70389,311.50967 138,311.5812 C 153.5687,311.64954 157.71954,311.99741 164.19674,313.77667 C 170.13325,315.40741 172.64894,315.67025 175.19674,314.92596 C 195.15499,309.09558 226.77806,310.23215 243.13263,317.36766 C 246.13313,318.67679 238.32891,318.83685 171.5,318.83685 C 106.49687,318.83685 96.924478,318.65096 99.684584,317.44225 z M 233,308.79155 C 231.075,308.23951 224.55,307.43935 218.5,307.01343 L 207.5,306.23902 L 220.5,306.42449 C 230.03083,306.56047 234.43401,307.04053 237,308.22341 C 241.02492,310.07883 238.66005,310.41473 233,308.79155 z M 108,308.26852 C 108,306.67255 114.48085,306.01015 128.5,306.17326 L 141.5,306.32451 L 130.5,307.0324 C 124.45,307.42174 116.9125,308.08569 113.75,308.50783 C 110.04908,309.00184 108,308.91656 108,308.26852 z M 158,301.87146 C 142.4775,301.19859 133.10791,300.01083 118,296.80074 C 112.775,295.69054 105.8,294.71871 102.5,294.6411 C 92.521264,294.40643 87,288.90063 87,279.18452 C 87,275.74617 87.614987,273.48789 89.047168,271.66716 C 90.17311,270.23576 91.48142,266.68757 91.954522,263.78231 C 94.824836,246.15602 101.50168,228.80362 110.33858,216.0041 L 112.75219,212.5082 L 104.93977,204.25493 C 100.64295,199.71563 95.188266,192.87235 92.818259,189.04764 C 90.173497,184.77953 87.654076,181.87901 86.295294,181.53798 C 84.545622,181.09884 83.548709,179.29597 81.540716,172.93955 C 80.143322,168.51601 79,164.27951 79,163.5251 C 79,162.77069 77.875,160.81646 76.5,159.18237 C 74.868843,157.24385 74,154.98715 74,152.68898 C 74,150.75171 73.480986,148.99366 72.846637,148.78221 C 72.064055,148.52135 72.282348,147.49872 73.525665,145.60117 C 74.729723,143.76355 75.301388,141.2093 75.192795,138.1523 C 74.978261,132.11296 74.969548,128.46411 75.157304,123.28927 C 75.24133,120.97338 74.763671,118.42017 74.095839,117.61548 C 73.127166,116.4483 73.276947,115.37746 74.836452,112.32058 C 75.91162,110.21308 77.328498,106.46628 77.985068,103.99438 C 78.641639,101.52247 79.985957,98.6 80.972443,97.5 C 82.69283,95.58165 86,89.694039 86,88.54966 C 86,88.247347 84.5375,87.983817 82.75,87.964037 L 79.5,87.928074 L 82.5,85.44841 C 84.15,84.084594 87.163696,82.46168 89.197103,81.841933 C 93.745945,80.455526 100.41485,73 97.10614,73 C 88.723763,73 101.8187,60.892634 115.03845,56.420075 C 118.74828,55.16495 124.41979,52.819604 127.6418,51.208195 C 130.86381,49.596786 135.975,47.48006 139,46.50436 C 142.025,45.52866 144.68927,44.564255 144.92061,44.361237 C 145.15195,44.158219 144.286,42.868888 142.9963,41.496057 L 140.65137,39 L 143.6892,39 C 145.36,39 149.15094,39.482351 152.11351,40.071891 C 158.17879,41.278858 190.20791,41.571686 198.05856,40.491946 C 203.05497,39.804764 203.15579,39.840387 202.05195,41.902934 C 201.06314,43.750542 201.24994,44.14453 203.52486,45.009451 C 204.9578,45.554253 208.70636,46 211.855,46 C 218.1934,46 227.10237,48.043496 233.39311,50.940308 L 237.5,52.831479 L 232.5,52.986025 C 229.75,53.071025 226.65797,53.471459 225.62882,53.875877 C 223.88368,54.561657 223.91736,54.712445 226.12882,56.114563 C 227.43297,56.941422 230.74342,58.456573 233.48537,59.481566 C 236.22732,60.50656 240.00036,62.247693 241.86991,63.350753 L 245.26908,65.356315 L 242.88454,66.262745 C 240.5992,67.131465 240.68721,67.257957 245,69.303277 C 249.90972,71.63169 257.49675,78.777688 260.22139,83.639865 L 261.94278,86.711718 L 259.45028,86.235247 C 257.09097,85.784235 257.01458,85.908154 258.02071,88.554473 C 258.60532,90.092106 260.62662,93.05807 262.51249,95.145503 C 266.42618,99.477488 271.27394,108.5899 272.92314,114.71455 C 273.9017,118.34865 273.78751,119.3 272.02594,122.18932 C 269.30342,126.6548 269.31837,134.74358 272.05909,140.11583 C 274.35246,144.61121 274.32886,149.5 272.01377,149.5 C 270.97722,149.5 270.29111,151.14288 269.74611,154.9299 C 267.71177,169.06573 256.86963,188.71174 243.14239,203.13599 L 233.78478,212.96874 L 237.2605,218.23437 C 245.97989,231.444 252.00787,246.30746 255.12652,262.28739 C 255.79337,265.70432 257.21271,269.69066 258.28059,271.14592 C 259.34848,272.60117 260.44856,275.79996 260.7252,278.25435 C 261.76555,287.48427 255.14995,294.40206 245.0733,294.62121 C 242.00798,294.68788 235,295.67596 229.5,296.81696 C 207.06367,301.47146 184.90661,303.0378 158,301.87146 z M 147.76791,178.28547 C 146.26526,178.0573 143.56526,178.05271 141.76791,178.27527 C 139.97056,178.49783 141.2,178.68452 144.5,178.69013 C 147.8,178.69574 149.27056,178.51365 147.76791,178.28547 z M 207.75,178.28375 C 206.2375,178.05462 203.7625,178.05462 202.25,178.28375 C 200.7375,178.51287 201.975,178.70034 205,178.70034 C 208.025,178.70034 209.2625,178.51287 207.75,178.28375 z M 164.65217,169.65217 L 170,164.30435 L 170,146.96663 C 170,123.88551 170.96588,125 150.96253,125 L 136.27368,125 L 131.5669,130.03193 C 124.97026,137.08427 121.62161,144.79159 121.5878,153 C 121.55428,161.1376 123.26452,166.18015 127.73705,171.13071 L 131.23272,175 L 145.26854,175 L 159.30435,175 L 164.65217,169.65217 z M 155.15161,154.12892 C 153.41828,153.01239 154.00383,150.02683 156.23124,148.62413 C 157.57175,147.77996 158.35784,147.92927 159.71429,149.28571 C 162.63487,152.2063 158.68151,156.40272 155.15161,154.12892 z M 221.44742,171.88012 C 226.50149,165.8737 227.46164,163.02854 227.4814,154 C 227.50399,143.67765 224.84511,137.08513 217.70095,129.75 L 213.07461,125 L 198.10988,125 L 183.14516,125 L 181.07258,127.63486 C 179.16988,130.05375 179,131.59515 179,146.44058 C 179,162.13218 179.07449,162.71352 181.51337,166.05572 C 182.89572,167.95007 185.48322,170.72539 187.26337,172.2231 C 190.44895,174.90325 190.72334,174.94662 204.66111,174.9731 L 218.82221,175 L 221.44742,171.88012 z M 187.01057,153.51273 C 185.56492,151.77083 186.30244,149.20491 188.49005,148.36544 C 190.43419,147.61941 193,149.69599 193,152.01546 C 193,153.60936 191.15515,155 189.04066,155 C 188.60298,155 187.68945,154.33073 187.01057,153.51273 z M 175.07548,153.08789 C 175.75519,154.16164 175.97304,153.96087 175.98469,152.25 C 175.99381,150.90986 175.39343,150 174.5,150 C 173.44642,150 173.04053,150.96725 173.13618,153.25 C 173.24594,155.86931 173.36059,156.03191 173.72698,154.08789 C 174.07875,152.22142 174.38379,151.99521 175.07548,153.08789 z M 175.98469,142.75 C 175.97455,139.27415 175.6673,137.9772 175.07548,138.91211 C 174.38379,140.00479 174.07875,139.77858 173.72698,137.91211 C 173.47694,136.58545 173.21108,138.3125 173.13618,141.75 C 173.02834,146.69941 173.31214,148 174.5,148 C 175.6448,148 175.99637,146.75681 175.98469,142.75 z M 154.7277,121.2702 C 152.65293,121.05373 149.50293,121.05736 147.7277,121.27827 C 145.95246,121.49918 147.65,121.6763 151.5,121.67186 C 155.35,121.66742 156.80246,121.48668 154.7277,121.2702 z M 200.7277,121.2702 C 198.65293,121.05373 195.50293,121.05736 193.7277,121.27827 C 191.95246,121.49918 193.65,121.6763 197.5,121.67186 C 201.35,121.66742 202.80246,121.48668 200.7277,121.2702 z M 109.5,301 C 106.76675,300.30451 106.72229,300.23123 109,300.17594 C 110.375,300.14257 113.3,300.48758 115.5,300.94263 L 119.5,301.77 L 116,301.76669 C 114.075,301.76486 111.15,301.41985 109.5,301 z M 227,300.03444 C 227,299.44355 229.42977,299 232.66667,299 C 239.4907,299 239.34362,299.49381 232.25,300.39897 C 228.86839,300.83047 227,300.70074 227,300.03444 z"
       id="path2171" />
    <path
       style="fill:#cf9330"
       d="M 99.684584,317.44225 C 101.4361,316.67522 106.6111,315.02443 111.18458,313.77382 C 118.50939,311.77088 121.70389,311.50967 138,311.5812 C 153.5687,311.64954 157.71954,311.99741 164.19674,313.77667 C 170.13325,315.40741 172.64894,315.67025 175.19674,314.92596 C 195.15499,309.09558 226.77806,310.23215 243.13263,317.36766 C 246.13313,318.67679 238.32891,318.83685 171.5,318.83685 C 106.49687,318.83685 96.924478,318.65096 99.684584,317.44225 z M 233,308.79155 C 231.075,308.23951 224.55,307.43935 218.5,307.01343 L 207.5,306.23902 L 220.5,306.42449 C 230.03083,306.56047 234.43401,307.04053 237,308.22341 C 241.02492,310.07883 238.66005,310.41473 233,308.79155 z M 108,308.26852 C 108,306.67255 114.48085,306.01015 128.5,306.17326 L 141.5,306.32451 L 130.5,307.0324 C 124.45,307.42174 116.9125,308.08569 113.75,308.50783 C 110.04908,309.00184 108,308.91656 108,308.26852 z M 109.5,301 C 106.76675,300.30451 106.72229,300.23123 109,300.17594 C 110.375,300.14257 113.3,300.48758 115.5,300.94263 L 119.5,301.77 L 116,301.76669 C 114.075,301.76486 111.15,301.41985 109.5,301 z M 151.76791,301.27527 C 153.56526,301.05271 156.26526,301.0573 157.76791,301.28547 C 159.27056,301.51365 157.8,301.69574 154.5,301.69013 C 151.2,301.68452 149.97056,301.49783 151.76791,301.27527 z M 189.75,301.2766 C 191.5375,301.05478 194.4625,301.05478 196.25,301.2766 C 198.0375,301.49843 196.575,301.67993 193,301.67993 C 189.425,301.67993 187.9625,301.49843 189.75,301.2766 z M 139.75,300.33772 C 140.4375,300.06031 141.5625,300.06031 142.25,300.33772 C 142.9375,300.61513 142.375,300.84211 141,300.84211 C 139.625,300.84211 139.0625,300.61513 139.75,300.33772 z M 204.75,300.33772 C 205.4375,300.06031 206.5625,300.06031 207.25,300.33772 C 207.9375,300.61513 207.375,300.84211 206,300.84211 C 204.625,300.84211 204.0625,300.61513 204.75,300.33772 z M 227,300.03444 C 227,299.44355 229.42977,299 232.66667,299 C 239.4907,299 239.34362,299.49381 232.25,300.39897 C 228.86839,300.83047 227,300.70074 227,300.03444 z M 132.27083,299.39583 C 132.60313,299.06354 133.46562,299.02802 134.1875,299.31689 C 134.98523,299.63611 134.74828,299.87307 133.58333,299.92105 C 132.52917,299.96447 131.93854,299.72812 132.27083,299.39583 z M 212.27083,299.39583 C 212.60313,299.06354 213.46562,299.02802 214.1875,299.31689 C 214.98523,299.63611 214.74828,299.87307 213.58333,299.92105 C 212.52917,299.96447 211.93854,299.72812 212.27083,299.39583 z M 126.27083,298.39583 C 126.60313,298.06354 127.46563,298.02802 128.1875,298.31689 C 128.98523,298.63611 128.74828,298.87307 127.58333,298.92105 C 126.52917,298.96447 125.93854,298.72812 126.27083,298.39583 z M 219.27083,298.39583 C 219.60313,298.06354 220.46562,298.02802 221.1875,298.31689 C 221.98523,298.63611 221.74828,298.87307 220.58333,298.92105 C 219.52917,298.96447 218.93854,298.72812 219.27083,298.39583 z M 224.27083,297.39583 C 224.60313,297.06354 225.46562,297.02802 226.1875,297.31689 C 226.98523,297.63611 226.74828,297.87307 225.58333,297.92105 C 224.52917,297.96447 223.93854,297.72812 224.27083,297.39583 z M 234.27083,295.39583 C 234.60313,295.06354 235.46562,295.02802 236.1875,295.31689 C 236.98523,295.63611 236.74828,295.87307 235.58333,295.92105 C 234.52917,295.96447 233.93854,295.72812 234.27083,295.39583 z M 94.984398,293.14839 C 89.713759,290.34757 87,285.70429 87,279.48698 C 87,275.74384 87.578423,273.53437 89.047168,271.66716 C 90.17311,270.23576 91.48142,266.68757 91.954522,263.78231 C 92.899818,257.97734 95.546765,247.3223 96.980066,243.55243 L 97.894131,241.14826 L 108.06399,245.02439 C 113.65742,247.15626 118.36157,249.03541 118.51766,249.20026 C 118.67375,249.36512 118.02114,253.63332 117.0674,258.68517 L 115.33334,267.87033 L 118.16667,269.9651 C 121.91224,272.73432 122.05832,277.79085 118.50663,281.73272 C 117.13528,283.25472 114.98881,286.075 113.7367,288 C 109.49596,294.51973 101.62931,296.6795 94.984398,293.14839 z M 239.37995,294.28671 C 239.56461,294.10206 238.09216,292.20079 236.10784,290.06166 C 226.07273,279.24363 224.70502,275.00488 229.60067,269.89492 L 232.20134,267.18041 L 230.60067,260.1428 C 228.10023,249.14921 227.74776,249.79386 238.75,245.23812 L 248.5,241.20091 L 249.72503,243.49183 C 251.03563,245.94281 256,264.26408 256,266.64997 C 256,267.43703 256.95,269.36593 258.11111,270.93641 C 260.98249,274.82016 261.67079,281.78948 259.60953,286.10843 C 257.06279,291.44458 251.7463,294.48839 244.84541,294.56122 C 241.65476,294.59489 239.1953,294.47137 239.37995,294.28671 z M 175.50841,261.67438 C 174.74417,259.84529 173.19559,254.82375 172.06713,250.5154 C 169.82291,241.94723 169,240.27274 169,244.27432 C 169,248.86321 167.43044,248.04787 165.53614,242.47492 C 163.10633,235.32654 160.95185,233.52723 152,231.1702 C 131.98414,225.90003 118.32274,218.22829 105.99961,205.33806 C 101.174,200.29039 95.26454,192.99544 92.867468,189.12705 C 90.185515,184.79893 87.657626,181.8799 86.295294,181.53798 C 84.545622,181.09884 83.548709,179.29597 81.540716,172.93955 C 80.143322,168.51601 79,164.27951 79,163.5251 C 79,162.77069 77.875,160.81646 76.5,159.18237 C 74.868843,157.24385 74,154.98715 74,152.68898 C 74,150.75171 73.480986,148.99366 72.846637,148.78221 C 72.064055,148.52135 72.282348,147.49872 73.525665,145.60117 C 74.729723,143.76355 75.301388,141.2093 75.192795,138.1523 C 74.978261,132.11296 74.969548,128.46411 75.157304,123.28927 C 75.24133,120.97338 74.763671,118.42017 74.095839,117.61548 C 73.127166,116.4483 73.276947,115.37746 74.836452,112.32058 C 75.91162,110.21308 77.328498,106.46628 77.985068,103.99438 C 78.641639,101.52247 79.985957,98.6 80.972443,97.5 C 82.69283,95.58165 86,89.694039 86,88.54966 C 86,88.247347 84.5375,87.983817 82.75,87.964037 L 79.5,87.928074 L 82.5,85.44841 C 84.15,84.084594 87.163696,82.46168 89.197103,81.841933 C 93.745945,80.455526 100.41485,73 97.10614,73 C 88.723763,73 101.8187,60.892634 115.03845,56.420075 C 118.74828,55.16495 124.41979,52.819604 127.6418,51.208195 C 130.86381,49.596786 135.975,47.48006 139,46.50436 C 142.025,45.52866 144.68927,44.564255 144.92061,44.361237 C 145.15195,44.158219 144.286,42.868888 142.9963,41.496057 L 140.65137,39 L 143.6892,39 C 145.36,39 149.15094,39.482351 152.11351,40.071891 C 158.17879,41.278858 190.20791,41.571686 198.05856,40.491946 C 203.05497,39.804764 203.15579,39.840387 202.05195,41.902934 C 201.06314,43.750542 201.24994,44.14453 203.52486,45.009451 C 204.9578,45.554253 208.70636,46 211.855,46 C 218.1934,46 227.10237,48.043496 233.39311,50.940308 L 237.5,52.831479 L 232.5,52.986025 C 229.75,53.071025 226.65797,53.471459 225.62882,53.875877 C 223.88368,54.561657 223.91736,54.712445 226.12882,56.114563 C 227.43297,56.941422 230.74342,58.456573 233.48537,59.481566 C 236.22732,60.50656 240.00036,62.247693 241.86991,63.350753 L 245.26908,65.356315 L 242.88454,66.262745 C 240.5992,67.131465 240.68721,67.257957 245,69.303277 C 249.90972,71.63169 257.49675,78.777688 260.22139,83.639865 L 261.94278,86.711718 L 259.45028,86.235247 C 257.09097,85.784235 257.01458,85.908154 258.02071,88.554473 C 258.60532,90.092106 260.62662,93.05807 262.51249,95.145503 C 266.42618,99.477488 271.27394,108.5899 272.92314,114.71455 C 273.9017,118.34865 273.78751,119.3 272.02594,122.18932 C 269.30342,126.6548 269.31837,134.74358 272.05909,140.11583 C 274.35246,144.61121 274.32886,149.5 272.01377,149.5 C 270.97722,149.5 270.29111,151.14288 269.74611,154.9299 C 267.70994,169.07841 256.87047,188.71097 243.11487,203.16466 C 229.44781,217.52531 215.03801,226.34546 198.31295,230.58762 C 193.02527,231.92879 190.99492,232.91144 190.63026,234.30589 C 190.35766,235.34833 189.69094,235.92703 189.14868,235.59189 C 188.60642,235.25675 187.86753,236.44897 187.50672,238.24127 C 186.34673,244.00332 185.92238,244.90744 184.61365,244.40524 C 183.71262,244.05948 182.4962,247.05713 180.53502,254.45627 C 178.99795,260.25532 177.55081,265 177.31915,265 C 177.08749,265 176.27266,263.50347 175.50841,261.67438 z M 147.76791,178.28547 C 146.26526,178.0573 143.56526,178.05271 141.76791,178.27527 C 139.97056,178.49783 141.2,178.68452 144.5,178.69013 C 147.8,178.69574 149.27056,178.51365 147.76791,178.28547 z M 207.75,178.28375 C 206.2375,178.05462 203.7625,178.05462 202.25,178.28375 C 200.7375,178.51287 201.975,178.70034 205,178.70034 C 208.025,178.70034 209.2625,178.51287 207.75,178.28375 z M 164.65217,169.65217 L 170,164.30435 L 170,146.96663 C 170,123.88551 170.96588,125 150.96253,125 L 136.27368,125 L 131.5669,130.03193 C 124.97026,137.08427 121.62161,144.79159 121.5878,153 C 121.55428,161.1376 123.26452,166.18015 127.73705,171.13071 L 131.23272,175 L 145.26854,175 L 159.30435,175 L 164.65217,169.65217 z M 155.15161,154.12892 C 153.41828,153.01239 154.00383,150.02683 156.23124,148.62413 C 157.57175,147.77996 158.35784,147.92927 159.71429,149.28571 C 162.63487,152.2063 158.68151,156.40272 155.15161,154.12892 z M 221.44742,171.88012 C 226.50149,165.8737 227.46164,163.02854 227.4814,154 C 227.50399,143.67765 224.84511,137.08513 217.70095,129.75 L 213.07461,125 L 198.10988,125 L 183.14516,125 L 181.07258,127.63486 C 179.16988,130.05375 179,131.59515 179,146.44058 C 179,162.13218 179.07449,162.71352 181.51337,166.05572 C 182.89572,167.95007 185.48322,170.72539 187.26337,172.2231 C 190.44895,174.90325 190.72334,174.94662 204.66111,174.9731 L 218.82221,175 L 221.44742,171.88012 z M 187.01057,153.51273 C 185.56492,151.77083 186.30244,149.20491 188.49005,148.36544 C 190.43419,147.61941 193,149.69599 193,152.01546 C 193,153.60936 191.15515,155 189.04066,155 C 188.60298,155 187.68945,154.33073 187.01057,153.51273 z M 175.07548,153.08789 C 175.75519,154.16164 175.97304,153.96087 175.98469,152.25 C 175.99381,150.90986 175.39343,150 174.5,150 C 173.44642,150 173.04053,150.96725 173.13618,153.25 C 173.24594,155.86931 173.36059,156.03191 173.72698,154.08789 C 174.07875,152.22142 174.38379,151.99521 175.07548,153.08789 z M 175.98469,142.75 C 175.97455,139.27415 175.6673,137.9772 175.07548,138.91211 C 174.38379,140.00479 174.07875,139.77858 173.72698,137.91211 C 173.47694,136.58545 173.21108,138.3125 173.13618,141.75 C 173.02834,146.69941 173.31214,148 174.5,148 C 175.6448,148 175.99637,146.75681 175.98469,142.75 z M 154.7277,121.2702 C 152.65293,121.05373 149.50293,121.05736 147.7277,121.27827 C 145.95246,121.49918 147.65,121.6763 151.5,121.67186 C 155.35,121.66742 156.80246,121.48668 154.7277,121.2702 z M 200.7277,121.2702 C 198.65293,121.05373 195.50293,121.05736 193.7277,121.27827 C 191.95246,121.49918 193.65,121.6763 197.5,121.67186 C 201.35,121.66742 202.80246,121.48668 200.7277,121.2702 z"
       id="path2169" />
    <path
       style="fill:#9b6b1f"
       d="M 99.684584,317.44225 C 101.4361,316.67522 106.6111,315.02443 111.18458,313.77382 C 118.50939,311.77088 121.70389,311.50967 138,311.5812 C 153.5687,311.64954 157.71954,311.99741 164.19674,313.77667 C 170.13325,315.40741 172.64894,315.67025 175.19674,314.92596 C 195.15499,309.09558 226.77806,310.23215 243.13263,317.36766 C 246.13313,318.67679 238.32891,318.83685 171.5,318.83685 C 106.49687,318.83685 96.924478,318.65096 99.684584,317.44225 z M 233,308.79155 C 231.075,308.23951 224.55,307.43935 218.5,307.01343 L 207.5,306.23902 L 220.5,306.42449 C 230.03083,306.56047 234.43401,307.04053 237,308.22341 C 241.02492,310.07883 238.66005,310.41473 233,308.79155 z M 108,308.26852 C 108,306.67255 114.48085,306.01015 128.5,306.17326 L 141.5,306.32451 L 130.5,307.0324 C 124.45,307.42174 116.9125,308.08569 113.75,308.50783 C 110.04908,309.00184 108,308.91656 108,308.26852 z M 109.5,301 C 106.76675,300.30451 106.72229,300.23123 109,300.17594 C 110.375,300.14257 113.3,300.48758 115.5,300.94263 L 119.5,301.77 L 116,301.76669 C 114.075,301.76486 111.15,301.41985 109.5,301 z M 227,300.03444 C 227,299.44355 229.42977,299 232.66667,299 C 239.4907,299 239.34362,299.49381 232.25,300.39897 C 228.86839,300.83047 227,300.70074 227,300.03444 z M 108.74724,282.01582 C 107.35987,280.92451 105.93964,278.89563 105.59116,277.50719 C 104.67252,273.84704 107.45142,269.05972 110.89436,268.37113 C 113.56538,267.83692 113.78205,267.36731 115.32847,258.7609 C 116.2227,253.78418 117.18962,249.47705 117.47717,249.18949 C 118.83174,247.83493 118.6923,250.23838 116.91304,258.91304 C 115.85213,264.08546 115.10019,268.35852 115.24206,268.40872 C 122.21174,270.87505 123.00664,279.8458 116.49653,282.5659 C 112.08863,284.40764 111.75812,284.38418 108.74724,282.01582 z M 118,280 C 122.00361,275.99639 118.9496,269.66667 113.01429,269.66667 C 109.27797,269.66667 107,272.01336 107,275.86239 C 107,281.44974 113.93986,284.06014 118,280 z M 231.31537,283.01455 C 226.37625,280.97585 225.41139,273.39476 229.66518,270.04873 L 232.33035,267.9523 L 230.66518,260.2033 C 228.77361,251.40077 228.50417,247.6684 229.92197,249.90799 C 230.41221,250.68238 231.39125,254.87475 232.09761,259.22435 C 233.31463,266.71846 233.55103,267.2034 236.61046,268.48171 C 240.19127,269.97786 242,272.60956 242,276.32347 C 242,281.35002 236.15324,285.01146 231.31537,283.01455 z M 239.4433,279.77749 C 241.65478,276.62015 241.37961,274.28871 238.44968,271.35877 C 236.47201,269.38111 235.29316,268.95451 233.19968,269.45896 C 225.43034,271.33104 226.62017,282 234.59828,282 C 236.86271,282 238.3713,281.30798 239.4433,279.77749 z M 175.9016,262.25 C 175.3247,260.7375 173.75078,255.70244 172.40399,251.06097 C 171.0572,246.41951 169.79972,242.46638 169.60958,242.27625 C 169.41945,242.08612 168.94972,243.40868 168.56573,245.21528 L 167.86757,248.5 L 165.58762,242.32718 C 164.33365,238.93213 162.11345,234.7351 160.65384,233.00046 C 158.76318,230.75353 158,228.71169 158,225.90022 C 158,222.04084 158.04957,221.98613 160.25,223.41716 C 161.4875,224.22196 164.85477,225.18928 167.73282,225.56677 C 172.05748,226.13399 173.07397,225.97081 173.58981,224.62655 C 174.37232,222.58737 177.35476,222.51761 179,224.5 C 180.59416,226.42085 185.07016,226.41535 189.68566,224.48687 C 191.67744,223.65465 193.45529,223.12196 193.63644,223.30311 C 193.81759,223.48425 193.53653,225.12923 193.01187,226.9586 C 192.48721,228.78798 192.29647,230.67068 192.58799,231.14237 C 192.87951,231.61407 192.69396,232 192.17565,232 C 191.65734,232 190.98607,232.94528 190.68394,234.10062 C 190.38181,235.25595 189.69094,235.92703 189.14868,235.59189 C 188.60642,235.25675 187.86753,236.44897 187.50672,238.24127 C 186.34449,244.01447 185.92183,244.90723 184.59239,244.39708 C 183.66372,244.04072 182.48027,246.94046 180.49033,254.44811 C 178.95207,260.25165 177.52632,265 177.322,265 C 177.11767,265 176.47849,263.7625 175.9016,262.25 z M 213,224.60699 C 213,224.39083 213.69837,223.94599 214.55194,223.61844 C 215.44186,223.27695 215.84326,223.44459 215.49292,224.01145 C 214.90566,224.96166 213,225.4169 213,224.60699 z M 223,219.57037 C 223,219.29537 223.9,218.5887 225,218 C 226.1,217.4113 227,217.15463 227,217.42963 C 227,217.70463 226.1,218.4113 225,219 C 223.9,219.5887 223,219.84537 223,219.57037 z M 228,216.62244 C 228,216.41479 228.7875,215.62729 229.75,214.87244 C 231.33606,213.62857 231.37143,213.66394 230.12756,215.25 C 228.82119,216.91575 228,217.44548 228,216.62244 z M 164.06037,212.60503 C 159.66459,211.01674 158.35616,208.29188 162.61962,209.60463 C 166.29305,210.7357 180.64395,210.75741 184.25,209.63735 C 188.60698,208.28405 187.55733,210.55984 182.97976,212.39142 C 178.27791,214.27273 168.96686,214.37785 164.06037,212.60503 z M 86.769203,181.78616 C 84.456758,180.99015 83.652471,179.62443 81.519203,172.87145 C 80.133642,168.48537 79,164.27951 79,163.5251 C 79,162.77069 77.875,160.81646 76.5,159.18237 C 74.868843,157.24385 74,154.98715 74,152.68898 C 74,150.75171 73.480986,148.99366 72.846637,148.78221 C 72.064055,148.52135 72.282348,147.49872 73.525665,145.60117 C 74.729723,143.76355 75.301388,141.2093 75.192795,138.1523 C 74.978261,132.11296 74.969548,128.46411 75.157304,123.28927 C 75.24133,120.97338 74.763671,118.42017 74.095839,117.61548 C 73.127166,116.4483 73.276947,115.37746 74.836452,112.32058 C 75.91162,110.21308 77.328498,106.46628 77.985068,103.99438 C 78.641639,101.52247 79.985957,98.6 80.972443,97.5 C 82.69283,95.58165 86,89.694039 86,88.54966 C 86,88.247347 84.5375,87.983817 82.75,87.964037 L 79.5,87.928074 L 82.5,85.44841 C 84.15,84.084594 87.163696,82.46168 89.197103,81.841933 C 93.745945,80.455526 100.41485,73 97.10614,73 C 88.723763,73 101.8187,60.892634 115.03845,56.420075 C 118.74828,55.16495 124.41979,52.819604 127.6418,51.208195 C 130.86381,49.596786 135.975,47.48006 139,46.50436 C 142.025,45.52866 144.68927,44.564255 144.92061,44.361237 C 145.15195,44.158219 144.286,42.868888 142.9963,41.496057 L 140.65137,39 L 143.6892,39 C 145.36,39 149.15094,39.482351 152.11351,40.071891 C 158.17879,41.278858 190.20791,41.571686 198.05856,40.491946 C 203.05497,39.804764 203.15579,39.840387 202.05195,41.902934 C 201.06314,43.750542 201.24994,44.14453 203.52486,45.009451 C 204.9578,45.554253 208.70636,46 211.855,46 C 218.1934,46 227.10237,48.043496 233.39311,50.940308 L 237.5,52.831479 L 232.5,52.986025 C 229.75,53.071025 226.65797,53.471459 225.62882,53.875877 C 223.88368,54.561657 223.91736,54.712445 226.12882,56.114563 C 227.43297,56.941422 230.74342,58.456573 233.48537,59.481566 C 236.22732,60.50656 240.00036,62.247693 241.86991,63.350753 L 245.26908,65.356315 L 242.88454,66.262745 C 240.5992,67.131465 240.68721,67.257957 245,69.303277 C 249.90972,71.63169 257.49675,78.777688 260.22139,83.639865 L 261.94278,86.711718 L 259.45028,86.235247 C 257.09097,85.784235 257.01458,85.908154 258.02071,88.554473 C 258.60532,90.092106 260.62662,93.05807 262.51249,95.145503 C 266.42618,99.477488 271.27394,108.5899 272.92314,114.71455 C 273.9017,118.34865 273.78751,119.3 272.02594,122.18932 C 269.30342,126.6548 269.31837,134.74358 272.05909,140.11583 C 274.35246,144.61121 274.32886,149.5 272.01377,149.5 C 270.98611,149.5 270.29764,151.09753 269.78241,154.67766 C 268.6814,162.32815 260.7804,182.11373 259.38397,180.7173 C 259.12189,180.45522 259.37828,176.48592 259.95373,171.89663 C 261.11279,162.65293 261.31149,149.76522 260.35029,146.17574 C 259.88449,144.43624 259.19605,143.97347 257.61395,144.33638 C 256.45128,144.60307 250.22493,146.02759 243.77762,147.50198 L 232.05525,150.18268 L 231.77762,163.84134 L 231.5,177.5 L 204,177.5 L 176.5,177.5 L 176.22178,163.75 C 175.9954,152.56186 175.6746,150 174.5,150 C 173.3254,150 173.0046,152.56186 172.77822,163.75 L 172.5,177.5 L 145,177.5 L 117.5,177.5 L 117.22327,162.75 C 117.07106,154.6375 116.67106,148 116.33436,148 C 115.42319,148 91.858746,144.05846 89.25,143.46969 C 87.01417,142.96509 87,143.03692 87,154.87398 C 87,161.86927 87.655945,169.95788 88.589178,174.47052 C 89.463226,178.69697 90.025726,182.2835 89.839178,182.44058 C 89.65263,182.59767 88.271142,182.30318 86.769203,181.78616 z M 170,150 L 170,125 L 145,125 L 120,125 L 120,150 L 120,175 L 145,175 L 170,175 L 170,150 z M 155.15161,154.12892 C 153.41828,153.01239 154.00383,150.02683 156.23124,148.62413 C 157.57175,147.77996 158.35784,147.92927 159.71429,149.28571 C 162.63487,152.2063 158.68151,156.40272 155.15161,154.12892 z M 229,150 L 229,125 L 204,125 L 179,125 L 179,150 L 179,175 L 204,175 L 229,175 L 229,150 z M 187.01057,153.51273 C 185.56492,151.77083 186.30244,149.20491 188.49005,148.36544 C 190.43419,147.61941 193,149.69599 193,152.01546 C 193,153.60936 191.15515,155 189.04066,155 C 188.60298,155 187.68945,154.33073 187.01057,153.51273 z M 176.22012,135.25 L 176.5,122.5 L 204,122.5 L 231.5,122.5 L 231.78078,134.75 C 231.93521,141.4875 232.2892,147 232.56743,147 C 233.32864,147 256.29771,141.94393 257.8316,141.43872 C 258.84337,141.10549 258.60919,140.10372 256.85665,137.26806 C 254.86724,134.04912 254.58775,132.43357 254.82391,125.51799 C 255.58366,103.26995 255.7674,105.05543 251.88932,97 C 248.37311,89.696232 243.09654,83.192403 238.83828,80.91345 C 236.79603,79.820469 236.74816,79.949651 237.19574,85.346777 C 237.70937,91.540558 237.41604,91.573149 232.28392,85.89251 C 228.1041,81.265941 219.27491,76.724315 215.33695,77.175188 C 212.88855,77.455514 212.43152,78.016537 212,81.271436 L 211.5,85.042872 L 207.5,82.354456 C 205.3,80.875827 202.22797,78.616181 200.67327,77.33302 C 196.31809,73.738494 191.73039,74.175854 188.4322,78.5 C 186.96393,80.425 185.3934,82 184.94213,82 C 184.49086,82 182.08795,80.239859 179.60234,78.088575 C 174.46865,73.645395 170.80459,72.523823 164.72827,73.535609 C 160.27729,74.276756 153.57032,77.268194 152.50883,78.98571 C 151.51022,80.601492 150.27696,80.167116 149.71025,78 C 149.26123,76.282957 148.34624,76 143.24284,76 C 136.5203,76 132.06262,77.276848 127.05685,80.636282 C 125.16311,81.907191 123.43716,82.770489 123.22139,82.554724 C 122.23437,81.567704 126.64179,74.580307 129.25305,72.992306 C 131.08463,71.878458 131.74779,70.962161 131.03928,70.524276 C 129.83121,69.777647 128.42767,70.651085 123.12754,75.447837 C 118.88993,79.282983 115.02255,87.32227 115.00977,92.32258 L 115,96.14516 L 112.29816,94.019896 L 109.59633,91.894632 L 107.98278,97.697316 C 106.19774,104.11671 103.91218,108.96051 100.52623,113.5 C 96.916593,118.33939 94.102814,124.49843 93.372708,129.15823 C 92.998556,131.54621 91.634952,135.06944 90.342475,136.98764 L 87.992518,140.47528 L 100.24626,142.68043 C 118.70526,146.00227 116.88524,146.96 117.21725,133.75 L 117.5,122.5 L 145,122.5 L 172.5,122.5 L 172.77988,135.25 C 173.00602,145.55201 173.33628,148 174.5,148 C 175.66372,148 175.99398,145.55201 176.22012,135.25 z M 129.88651,119.21205 C 131.60271,116.00531 131.2163,113.26491 128.81033,111.5797 C 127.60602,110.73617 126.81852,109.89122 127.06033,109.70205 C 129.10939,108.09907 158.07908,104.44468 163.05979,105.1609 C 166.04731,105.59049 167.32374,109.75743 165.22069,112.21518 C 163.9,113.75862 164.01573,114.05005 166.37652,115.12569 C 167.81944,115.78313 169,116.64772 169,117.04702 C 169,118.24527 162.9666,118.78078 155,118.28961 C 147.86758,117.84988 136.24272,118.95199 131.13651,120.55202 C 128.98231,121.22704 128.87162,121.10839 129.88651,119.21205 z M 207.5,118.94263 C 205.3,118.48758 198.775,118.08582 193,118.04983 C 182.98533,117.98742 182.44969,117.87581 181.41156,115.63517 C 180.54019,113.75447 180.63991,113.08235 181.91156,112.26506 C 183.32538,111.3564 183.24466,110.8946 181.17727,108.0642 L 178.85453,104.88423 L 184.67727,105.44645 C 187.87977,105.75567 196.47513,106.47266 203.77808,107.03976 C 220.79899,108.3615 224.4997,109.68055 220.5,113 C 219.675,113.68469 219,115.53979 219,117.12244 C 219,119.8014 218.74118,119.99206 215.25,119.885 C 213.1875,119.82175 209.7,119.39768 207.5,118.94263 z"
       id="path2167" />
    <path
       style="fill:#323232"
       d="M 99.684584,317.44225 C 101.4361,316.67522 106.6111,315.02443 111.18458,313.77382 C 118.50939,311.77088 121.70389,311.50967 138,311.5812 C 153.53913,311.64941 157.72508,311.99906 164.15453,313.76588 C 171.08846,315.67132 172.2907,315.74229 176.92515,314.51974 C 196.81189,309.27372 225.37823,310.32383 241.58306,316.8966 L 246.5,318.89094 L 171.5,318.86389 C 106.481,318.84045 96.923804,318.65126 99.684584,317.44225 z M 233,308.79155 C 231.075,308.23951 224.55,307.43935 218.5,307.01343 L 207.5,306.23902 L 220.5,306.42449 C 230.03083,306.56047 234.43401,307.04053 237,308.22341 C 241.02492,310.07883 238.66005,310.41473 233,308.79155 z M 108,308.26852 C 108,306.67255 114.48085,306.01015 128.5,306.17326 L 141.5,306.32451 L 130.5,307.0324 C 124.45,307.42174 116.9125,308.08569 113.75,308.50783 C 110.04908,309.00184 108,308.91656 108,308.26852 z M 109.5,301 C 106.76675,300.30451 106.72229,300.23123 109,300.17594 C 110.375,300.14257 113.3,300.48758 115.5,300.94263 L 119.5,301.77 L 116,301.76669 C 114.075,301.76486 111.15,301.41985 109.5,301 z M 227,300.03444 C 227,299.44355 229.42977,299 232.66667,299 C 239.4907,299 239.34362,299.49381 232.25,300.39897 C 228.86839,300.83047 227,300.70074 227,300.03444 z M 114.07895,266.58333 C 114.03553,265.52917 114.27187,264.93854 114.60417,265.27083 C 114.93646,265.60312 114.97198,266.46562 114.68311,267.1875 C 114.36389,267.98523 114.12693,267.74828 114.07895,266.58333 z M 232.15789,265 C 232.15789,263.625 232.38487,263.0625 232.66228,263.75 C 232.93969,264.4375 232.93969,265.5625 232.66228,266.25 C 232.38487,266.9375 232.15789,266.375 232.15789,265 z M 115.19847,262 C 115.1912,259.1948 117.72004,248.65439 117.83757,251 C 117.87891,251.825 117.30348,255.2 116.55884,258.5 C 115.81419,261.8 115.20203,263.375 115.19847,262 z M 176.06188,261.53431 C 175.41487,259.90319 173.95038,255.17819 172.80746,251.03431 C 169.72392,239.85433 169.89532,240.15236 168.62659,243.76479 L 167.47995,247.02959 L 165.61341,241.76479 C 164.58682,238.86916 162.67883,235.22797 161.37344,233.67327 C 160.06805,232.11858 158.99386,229.86858 158.98635,228.67327 C 158.97884,227.47797 158.68319,225.375 158.32935,224 C 157.69837,221.54802 157.72546,221.53479 159.73982,223.3116 C 162.66882,225.89519 172.11908,226.76637 173.90271,224.61722 C 175.58473,222.59052 177.60847,222.53731 178.36163,224.5 C 179.11607,226.46604 185.90157,226.4858 190.56917,224.53555 C 192.49688,223.7301 193.88753,223.3926 193.65951,223.78555 C 193.43149,224.1785 192.47878,227.16824 191.54237,230.42942 C 190.42212,234.33085 189.56257,235.91027 189.02923,235.04729 C 188.15313,233.62974 187.74204,234.55018 186.50774,240.69293 C 186.07652,242.83895 185.41629,243.71324 184.49412,243.35937 C 183.54665,242.99579 182.77419,244.17384 181.99778,247.16644 C 181.37942,249.5499 180.05556,254.425 179.05587,258 C 177.23918,264.49673 177.23768,264.49851 176.06188,261.53431 z M 231.15789,260 C 231.15789,258.625 231.38487,258.0625 231.66228,258.75 C 231.93969,259.4375 231.93969,260.5625 231.66228,261.25 C 231.38487,261.9375 231.15789,261.375 231.15789,260 z M 229.55556,253.44444 C 229.17907,251.4376 229.07103,249.59563 229.31548,249.35119 C 229.55992,249.10674 230.06796,250.54871 230.44444,252.55556 C 230.82093,254.5624 230.92897,256.40437 230.68452,256.64881 C 230.44008,256.89326 229.93204,255.45129 229.55556,253.44444 z M 164.75,212.45991 C 162.1375,211.62368 160,210.45495 160,209.86275 C 160,209.2224 160.70924,209.08557 161.75,209.52513 C 168.50683,212.37886 177.97216,212.36022 185.25,209.47886 C 186.21829,209.09551 187,209.23681 187,209.79519 C 187,212.87927 171.7616,214.70427 164.75,212.45991 z M 84.737257,180.5944 C 83.964176,179.82132 82.29531,175.43382 81.028665,170.8444 C 79.76202,166.25498 77.609553,160.82456 76.245405,158.77679 C 74.524167,156.19299 73.901085,154.12731 74.209375,152.02679 C 74.517013,149.93073 74.237731,149 73.301127,149 C 72.197773,149 72.224407,148.46672 73.445716,146.10497 C 75.602604,141.93401 76.408136,135.63113 75.097335,133.18187 C 74.271675,131.63911 74.285733,129.96038 75.151415,126.72369 C 76.134439,123.04828 76.06067,121.82798 74.689283,119.07897 C 73.15943,116.01231 73.173684,115.57936 74.917289,112.1539 C 75.940225,110.14425 77.35376,106.475 78.058479,104 C 78.763198,101.525 80.080256,98.6 80.985275,97.5 C 83.457172,94.495547 86,90.203273 86,89.035183 C 86,88.465832 84.5375,87.983817 82.75,87.964037 L 79.5,87.928074 L 82.362072,85.58711 C 83.936211,84.299579 86.999751,82.660142 89.169937,81.943916 C 91.573798,81.15057 94.298293,79.148581 96.141895,76.820843 C 98.919474,73.313864 99.001714,73 97.143046,73 C 93.652599,73 93.65063,70.956768 97.137581,67.328481 C 101.37665,62.917592 107.07692,59.540837 116.27818,55.98987 C 120.25018,54.456989 127.1,51.587396 131.5,49.612997 C 135.9,47.638598 140.9625,45.742884 142.75,45.4003 C 146.68864,44.645436 146.81119,43.783244 143.36514,41.07258 L 140.73028,39 L 143.72865,39 C 145.37775,39 149.15094,39.479595 152.11351,40.065767 C 158.39073,41.307773 190.04153,41.634613 197.84219,40.537981 C 203.12019,39.79599 203.17028,39.813307 202.01117,41.979129 C 201.3659,43.184819 201.06793,44.401264 201.34901,44.682339 C 201.63008,44.963415 206.50404,45.566322 212.18003,46.022133 C 219.49563,46.609614 224.68341,47.67289 230,49.674472 L 237.5,52.498063 L 230.75359,53.07877 C 227.04307,53.398159 223.79875,53.867921 223.54398,54.122686 C 223.02266,54.644011 228.14485,57.354551 238.5,62.037043 C 245.10278,65.022751 245.35813,65.258005 243,66.182751 C 240.55074,67.143231 240.59865,67.213745 245.36052,69.656901 C 250.52433,72.306279 257.37412,78.791883 260.22139,83.727666 L 261.94278,86.711718 L 259.45028,86.235247 C 257.09408,85.784831 257.01556,85.910737 258.01436,88.537764 C 258.59547,90.066207 260.37552,92.8026 261.97002,94.618638 C 266.20634,99.443537 270.00364,106.31225 271.99773,112.75718 C 273.71347,118.30244 273.70652,118.50147 271.66011,122.42759 C 268.87319,127.77442 268.96079,135.58245 271.86034,140.27402 C 274.52503,144.58559 274.72203,148.99865 272.25,149.00328 C 270.85486,149.0059 270.17528,150.67883 268.89867,157.25328 C 267.48285,164.54467 260.62216,181.9841 259.59268,180.9085 C 259.37764,180.68383 259.55806,178.25 259.99362,175.5 C 260.82948,170.22256 261.35855,158.04445 261.13403,149.25 C 261.02146,144.84062 260.70128,144 259.13439,144 C 257.43049,144 236.87226,148.37041 232.75,149.60897 C 231.19628,150.0758 231,151.6414 231,163.56739 L 231,177 L 204,177 L 177,177 L 177,163.5 L 177,150 L 174.5,150 L 172,150 L 172,163.5 L 172,177 L 144.5,177 L 117,177 L 117,162.51905 C 117,148.3203 116.95615,148.02812 114.75,147.52559 C 109.68926,146.37282 89.511082,143 87.675328,143 C 85.776851,143 85.724529,143.51266 86.323022,156.25 C 86.665442,163.5375 87.556584,172.3125 88.303338,175.75 C 89.566052,181.5626 89.537962,182 87.901965,182 C 86.934456,182 85.510337,181.36748 84.737257,180.5944 z M 170.5,150 L 170.5,124.5 L 145,124.5 L 119.5,124.5 L 119.2317,148.98111 C 119.08413,162.44572 119.18548,174.04097 119.45692,174.74833 C 119.84492,175.75945 125.35478,175.97731 145.22522,175.76722 L 170.5,175.5 L 170.5,150 z M 155.01057,153.51273 C 153.25731,151.40018 154.50776,149 157.36163,149 C 160.14652,149 161.57275,151.60495 159.89481,153.62675 C 158.41165,155.41385 156.55233,155.37044 155.01057,153.51273 z M 229.5,150 L 229.5,124.5 L 204,124.5 L 178.5,124.5 L 178.2317,148.98111 C 178.08413,162.44572 178.18548,174.04097 178.45692,174.74833 C 178.84492,175.75945 184.35478,175.97731 204.22522,175.76722 L 229.5,175.5 L 229.5,150 z M 187.10519,153.62675 C 185.42725,151.60495 186.85348,149 189.63837,149 C 192.49224,149 193.74269,151.40018 191.98943,153.51273 C 190.44767,155.37044 188.58835,155.41385 187.10519,153.62675 z M 177,135.5 L 177,123 L 204,123 L 231,123 L 231,135 C 231,145.76034 231.18078,147.00043 232.75,147.00412 C 234.73487,147.00879 258.273,141.93217 258.92373,141.35906 C 259.15678,141.15381 258.32709,138.94279 257.07997,136.44567 C 254.47273,131.22518 254.00441,124.10007 255.75676,116.31407 C 256.70094,112.11894 256.6462,110.06189 255.4703,105.54727 C 252.66293,94.769049 246.10255,84.786733 239.16384,80.735245 L 236.14146,78.97049 L 236.69405,84.735245 L 237.24665,90.5 L 232.37332,85.853378 C 226.41326,80.170573 219.908,76.779249 215.75925,77.19213 C 213.27577,77.439286 212.45086,78.141818 211.57627,80.754558 L 210.48684,84.009116 L 205.11898,80.254558 C 194.54987,72.861966 191.60885,72.467846 188.33756,78.005709 C 185.98753,81.983988 184.02697,81.783557 178.5,77 C 174.52042,73.555694 173.22692,73.000775 169.18918,73.005577 C 162.83545,73.013134 157.65354,74.579202 154.10651,77.563835 C 151.25703,79.961515 151.1284,79.979924 150.5243,78.076558 C 150.17967,76.990719 148.97205,75.808516 147.8407,75.449441 C 144.28238,74.320073 135.21265,76.034903 129.4977,78.917584 C 122.6787,82.357155 122.08658,80.678125 128.02451,74.740196 C 132.52866,70.236043 132.52954,69.123804 128.02746,70.988625 C 121.76332,73.583316 115.06411,84.031949 115.02196,91.273053 L 115,95.046106 L 112.54398,93.436857 C 109.63034,91.52777 108,92.244073 108,95.43329 C 108,99.266188 105.22491,105.92789 101.12789,111.93002 C 95.72989,119.83809 94.169649,123.10288 92.874562,129.20003 C 92.255395,132.11501 90.856231,135.76341 89.76531,137.30758 C 88.674389,138.85174 87.997041,140.33037 88.260093,140.59343 C 88.523145,140.85648 94.084736,141.96105 100.61918,143.04803 C 107.15363,144.13501 113.5125,145.25245 114.75,145.53123 C 116.98245,146.03415 117,145.94825 117,134.51905 L 117,123 L 144.5,123 L 172,123 L 172,135.5 L 172,148 L 174.5,148 L 177,148 L 177,135.5 z M 131.12903,117.61615 C 132.1791,115.31151 132.04409,114.67583 130.0548,112.55833 L 127.77956,110.13645 L 131.63978,109.09831 C 138.22681,107.32685 149.13703,106.04049 157.75,106.01981 L 166,106 L 166,108.89301 C 166,110.54209 165.35503,112.03352 164.5,112.36163 C 162.29276,113.20862 162.67508,114.81309 165.17167,115.18045 C 166.36609,115.3562 167.51332,116.01669 167.72107,116.6482 C 167.99131,117.46965 163.31803,117.93153 151.2994,118.27125 C 142.05973,118.53242 133.4713,119.08494 132.21401,119.49909 C 130.0492,120.21217 129.99169,120.11235 131.12903,117.61615 z M 207,118.4483 C 203.425,117.70308 196.38564,117.07235 191.35699,117.04668 C 183.63697,117.00726 182.1106,116.7306 181.54976,115.26908 C 181.18444,114.31707 181.3613,113.37957 181.94277,113.18574 C 183.47283,112.67572 183.24157,110.29831 181.3865,107.46712 C 179.78753,105.02678 179.79879,105.00941 182.6365,105.53849 C 184.21142,105.83213 193.04788,106.65147 202.27306,107.35925 C 211.91951,108.09935 219.5376,109.1376 220.20285,109.80285 C 221.06732,110.66732 221.07452,111.53319 220.23134,113.22979 C 219.61081,114.47841 218.96355,116.4 218.793,117.5 C 218.4025,120.01855 215.61007,120.2431 207,118.4483 z"
       id="path2165" />
    <path
       style="fill:#000000"
       d="M 100.08333,317.61319 C 101.49641,316.30138 118.11914,312.70766 127.13357,311.76512 C 138.924,310.53233 153.5649,311.6124 165.41566,314.58921 C 171.58722,316.13946 172.34208,316.12718 179.22208,314.36456 C 188.55508,311.9735 219.84993,311.70113 230,313.92262 C 247.75238,317.80799 246.12211,317.91973 171.08333,317.96086 C 131.80417,317.98239 99.854167,317.82594 100.08333,317.61319 z M 111.25,307.28375 C 112.7625,307.05462 115.2375,307.05462 116.75,307.28375 C 118.2625,307.51287 117.025,307.70034 114,307.70034 C 110.975,307.70034 109.7375,307.51287 111.25,307.28375 z M 230.27083,307.39583 C 230.60313,307.06354 231.46562,307.02802 232.1875,307.31689 C 232.98523,307.63611 232.74828,307.87307 231.58333,307.92105 C 230.52917,307.96447 229.93854,307.72812 230.27083,307.39583 z M 223.75,306.33772 C 224.4375,306.06031 225.5625,306.06031 226.25,306.33772 C 226.9375,306.61513 226.375,306.84211 225,306.84211 C 223.625,306.84211 223.0625,306.61513 223.75,306.33772 z M 174.10446,255.63344 C 172.90167,251.58183 171.65224,246.63183 171.32794,244.63344 C 170.59859,240.139 169.16227,239.93867 168.30757,244.21217 L 167.66513,247.42433 L 165.87449,242.15634 C 164.88963,239.25895 162.93998,235.52895 161.54192,233.86745 C 159.91058,231.92872 159,229.62911 159,227.44803 C 159,224.21313 159.1235,224.09646 161.5651,225.02475 C 164.92388,226.30176 174,226.28369 174,225 C 174,223.52875 176.24893,223.77861 180.04308,225.67138 C 183.14955,227.22109 183.72226,227.22451 187.91045,225.71845 C 190.39481,224.82508 192.55476,224.22143 192.71034,224.37701 C 192.86592,224.53258 192.30785,226.96772 191.47019,229.78842 C 190.35126,233.55627 189.55621,234.76693 188.47359,234.35149 C 187.43413,233.95262 186.99598,234.48041 186.98635,236.14301 C 186.96379,240.03585 185.85065,243 184.4113,243 C 183.12139,243 181.63152,247.13847 178.92119,258.25 C 178.28395,260.8625 177.43154,263 177.02696,263 C 176.62237,263 175.30725,259.68505 174.10446,255.63344 z M 162.75,211.70058 C 158.35627,209.9644 159.57614,208.93917 164.12573,210.54436 C 169.33513,212.38234 176.3433,212.40293 182.34107,210.59787 C 184.90348,209.8267 187,209.53047 187,209.93958 C 187,212.59614 168.42923,213.94472 162.75,211.70058 z M 85.216111,180.21611 C 84.234973,179.23497 82.39296,174.64004 81.12275,170.00515 C 79.85254,165.37026 77.99778,160.54134 77.001061,159.27422 C 75.37655,157.20899 75.322035,156.4799 76.474742,152.23518 C 77.181986,149.63083 78.521383,145.475 79.451181,143 C 82.815198,134.04542 83.25944,132.16983 82.619889,129.62165 C 82.206277,127.97369 81.05393,126.80066 79.454223,126.39915 C 76.730956,125.71566 76.772496,124.40938 79.700422,118.65707 C 80.4963,117.09346 80.908572,115.57524 80.616581,115.28325 C 80.324591,114.99126 80.96641,113.026 82.042845,110.91602 C 83.11928,108.80603 84,105.99298 84,104.66479 C 84,102.82674 85.928471,100.75805 92.073307,96.004449 C 102.35373,88.051592 104,86.242802 104,82.900332 C 104,79.197367 109.0405,75 113.48728,75 C 116.50579,75 117.06602,74.50852 119.41055,69.803656 C 120.83475,66.945666 122,64.029812 122,63.32398 C 122,60.967271 129.56232,58 135.56857,58 C 141.0011,58 141.19425,57.91007 140.62582,55.645265 C 140.05337,53.364452 140.27445,53.270272 147.66828,52.645265 C 151.86669,52.290369 158.15886,52 161.65088,52 C 165.14289,52 168,51.804295 168,51.5651 C 168,51.325904 167.56114,49.975904 167.02475,48.5651 C 166.48836,47.154295 166.28878,46 166.58123,46 C 166.87368,46 172.28076,48.25 178.59696,51 C 184.91317,53.75 190.48447,56 190.97762,56 C 191.47077,56 191.61932,54.428999 191.30773,52.508887 L 190.7412,49.017775 L 195.1206,50.366864 C 197.52927,51.108864 201.8441,53.312054 204.70912,55.262842 C 210.26227,59.043984 219.57402,62.486431 227.09241,63.537689 C 229.61823,63.890863 233.41815,65.152113 235.53668,66.340468 C 240.06718,68.881784 244.02588,74.747938 242.03901,75.975888 C 241.19226,76.499214 242.5108,77.697129 246.05818,79.62736 C 251.5275,82.603368 252.51498,83.735804 253.41197,88.060661 C 253.70407,89.469025 255.40721,92.619025 257.19673,95.060661 C 258.98624,97.502298 260.47849,99.725 260.51285,100 C 260.5472,100.275 261.96865,104.1 263.67163,108.5 C 268.76718,121.66541 268.73547,121 264.26739,121 C 256.5472,121 255.83078,125.90527 262.54244,132.81062 C 270.90593,141.41547 271.69987,153.3161 264.97959,169.34228 C 260.47156,180.09282 259.85398,180.5522 260.73452,172.5 C 261.58674,164.70683 261.74469,144.41136 260.95924,143.62591 C 260.68197,143.34863 253.94021,144.56726 245.97755,146.33398 L 231.5,149.54618 L 231.22178,163.27309 L 230.94356,177 L 203.97178,177 L 177,177 L 177,163.5 L 177,150 L 174.5,150 L 172,150 L 172,163.5 L 172,177 L 145.02673,177 L 118.05347,177 L 117.77673,162.27852 L 117.5,147.55704 L 104.5,145.34084 C 97.35,144.12193 90.2625,143.09659 88.75,143.06232 L 86,143 L 86.001367,153.25 C 86.002119,158.8875 86.676504,167.325 87.5,172 C 88.323496,176.675 88.997881,180.8375 88.998633,181.25 C 89.001061,182.58188 87.048062,182.04806 85.216111,180.21611 z M 171,150 L 171,124 L 145,124 L 119,124 L 119,150 L 119,176 L 145,176 L 171,176 L 171,150 z M 155.14079,153.66964 C 153.44159,151.62223 154.83561,148.83448 157.37728,149.19713 C 158.89052,149.41304 159.5,150.21387 159.5,151.9863 C 159.5,154.83906 156.93375,155.83003 155.14079,153.66964 z M 230,150 L 230,124 L 204,124 L 178,124 L 178,150 L 178,176 L 204,176 L 230,176 L 230,150 z M 187.36163,153.5 C 186.48403,151.21301 187.71347,149 189.86163,149 C 192.22686,149 193.44122,151.76343 191.89481,153.62675 C 190.39029,155.43958 188.08114,155.37501 187.36163,153.5 z M 177,135.5 L 177,123 L 204,123 L 231,123 L 231,135.51905 C 231,147.99174 231.00833,148.03615 233.25,147.50947 C 234.4875,147.21873 240.66718,145.83048 246.98262,144.42447 C 253.29806,143.01847 258.67832,141.65501 258.93876,141.39457 C 259.1992,141.13413 258.64407,139.47631 257.70513,137.71052 C 254.67954,132.0205 254.00469,125.30241 255.74875,118.23496 C 257.62975,110.61264 256.70399,105.20673 251.81808,95.282027 C 248.84435,89.241535 239.38496,79 236.77951,79 C 236.09597,79 235.91754,80.91205 236.2765,84.390087 L 236.83281,89.780175 L 232.51162,85.458986 C 227.90599,80.853362 222.48168,77.671575 217.34738,76.563969 C 214.75659,76.005068 213.91008,76.290292 212.59738,78.164438 C 211.71882,79.418754 211,81.271816 211,82.282354 C 211,83.771961 209.61474,83.16207 203.68067,79.059848 C 199.65504,76.276932 195.35959,74 194.13522,74 C 191.86544,74 187,78.06035 187,79.954545 C 187,81.924875 183.21049,81.000619 180.85496,78.455778 C 177.27204,74.584914 173.59543,73 168.19888,73 C 162.72953,73 157.77673,74.418303 153.94594,77.081525 C 151.4833,78.793589 151.34877,78.788114 150.18747,76.928573 C 147.86377,73.207737 133.84434,75.156456 126.75,80.186412 C 125.2375,81.258789 124.00168,81.768046 124.00374,81.318094 C 124.01152,79.614405 127.9774,74.082464 129.94649,73.028638 C 132.46852,71.678888 132.62449,70 130.22784,70 C 127.75652,70 121.33792,75.504446 118.4208,80.125456 C 117.07888,82.251207 115.49873,86.238906 114.90937,88.987009 C 113.96019,93.412878 113.62614,93.870283 111.98464,92.99178 C 108.99264,91.390509 108.00151,91.825255 107.97626,94.75 C 107.94189,98.732205 104.03671,107.56509 99.177914,114.65044 C 96.423277,118.66739 94.33284,123.27139 93.151578,127.92289 C 92.156818,131.83999 90.376917,136.35149 89.196244,137.94844 L 87.049564,140.85198 L 89.774782,141.39263 C 102.66406,143.9497 116.21211,145.98694 117.01753,145.48917 C 117.56396,145.15145 118,140.02613 118,133.94098 L 118,123 L 145,123 L 172,123 L 172,135.5 L 172,148 L 174.5,148 L 177,148 L 177,135.5 z M 130.88367,118.21737 C 132.4315,115.32522 132.29437,114.29437 130.0653,112.0653 C 128.15237,110.15237 128.20754,110.1131 134.96919,108.5752 C 138.73041,107.71973 146.97486,106.72468 153.29019,106.36399 C 164.54061,105.72143 164.78682,105.75298 165.47643,107.92575 C 165.936,109.37371 165.6284,110.75313 164.59013,111.9004 C 162.45549,114.25915 162.56772,114.67469 165.5409,115.42091 C 167.04708,115.79894 167.80387,116.50834 167.39929,117.16295 C 166.95003,117.88988 164.23589,118.07963 159.45706,117.71821 C 151.8936,117.14618 134.86744,118.27356 131.63367,119.56051 C 129.99525,120.21255 129.90366,120.04853 130.88367,118.21737 z M 208.5,118.45888 C 205.2,117.70449 198.12833,117.06763 192.78518,117.04363 C 184.29022,117.00548 182.94268,116.76142 182.0535,115.09996 C 181.27299,113.64157 181.40327,113.05923 182.61395,112.59465 C 184.00138,112.06224 183.93877,111.5614 182.09392,108.4346 C 180.94037,106.47948 180.41801,105.14031 180.93313,105.45868 C 181.44826,105.77704 190.27794,106.66798 200.55465,107.43855 C 210.83136,108.20912 219.67737,109.27737 220.21243,109.81243 C 220.8429,110.4429 220.73261,111.61493 219.89905,113.14264 C 219.19163,114.43919 218.58744,116.4 218.55641,117.5 C 218.48519,120.02521 216.27407,120.23603 208.5,118.45888 z"
       id="path2163" />
  </g>
</svg>
