<?xml version="1.0" encoding="UTF-8" standalone="no"?>
<!-- Created with Inkscape (http://www.inkscape.org/) -->
<svg
   xmlns:dc="http://purl.org/dc/elements/1.1/"
   xmlns:cc="http://web.resource.org/cc/"
   xmlns:rdf="http://www.w3.org/1999/02/22-rdf-syntax-ns#"
   xmlns:svg="http://www.w3.org/2000/svg"
   xmlns="http://www.w3.org/2000/svg"
   xmlns:sodipodi="http://sodipodi.sourceforge.net/DTD/sodipodi-0.dtd"
   xmlns:inkscape="http://www.inkscape.org/namespaces/inkscape"
   id="svg2"
   sodipodi:version="0.32"
   inkscape:version="0.45+devel"
   width="203.77296"
   height="300.98453"
   version="1.0"
   sodipodi:docbase="/home/cworth/src/slippy"
   sodipodi:docname="cworth.svg"
   inkscape:output_extension="org.inkscape.output.svg.inkscape"
   sodipodi:modified="true">
  <metadata
     id="metadata7">
    <rdf:RDF>
      <cc:Work
         rdf:about="">
        <dc:format>image/svg+xml</dc:format>
        <dc:type
           rdf:resource="http://purl.org/dc/dcmitype/StillImage" />
      </cc:Work>
    </rdf:RDF>
  </metadata>
  <defs
     id="defs5" />
  <sodipodi:namedview
     inkscape:cy="174.58726"
     inkscape:cx="253.17591"
     inkscape:zoom="1.2114286"
     inkscape:window-height="731"
     inkscape:window-width="1024"
     inkscape:pageshadow="2"
     inkscape:pageopacity="0.0"
     guidetolerance="10.0"
     gridtolerance="10.0"
     objecttolerance="10.0"
     borderopacity="1.0"
     bordercolor="#666666"
     pagecolor="#ffffff"
     id="base"
     inkscape:window-x="0"
     inkscape:window-y="0"
     inkscape:current-layer="svg2" />
  <rect
     fill="white"
     width="132"
     height="74"
     x="34"
     y="95" />
  <g
     id="g2204"
     transform="translate(-77.227033,-21.852985)">
    <path
       style="fill:#fee0c3"
       d="M 108.33071,321.67219 C 110.73304,320.72589 111.07733,320.13665 110.60571,317.77857 C 110.19903,315.74516 110.44557,315 111.525,315 C 113.23788,315 113.40278,313.18959 112.02095,309.5551 C 111.28805,307.62742 111.45881,306.10571 112.70017,303.50256 C 113.61222,301.58996 114.06755,299.73421 113.712,299.37867 C 113.35646,299.02312 110.64395,298.67217 107.68422,298.59878 C 97.813069,298.35401 91.245332,291.38775 92.274799,282.25435 C 92.551444,279.79996 93.672526,276.58163 94.766094,275.1025 C 95.859661,273.62338 97.093033,270.40881 97.506921,267.95903 C 97.920809,265.50925 99.354966,259.90379 100.69394,255.50244 C 102.03291,251.1011 103.29255,246.41787 103.49315,245.09526 C 103.98006,241.8848 109.40362,231.31422 114.70618,223.24092 L 119.00285,216.69912 L 110.18625,207.58548 C 101.26703,198.36579 94.531183,188.42532 91.324408,179.75 C 90.358714,177.1375 89.074857,175 88.471392,175 C 87.112567,175 82.710733,170.35793 80.885405,167 C 80.137973,165.625 79.211007,160 78.825481,154.5 C 78.439956,149 77.834558,142.25 77.480153,139.5 C 76.904504,135.03326 77.158187,134.0181 79.858766,129.98153 C 81.786953,127.09946 83.238333,123.24889 83.866357,119.34922 C 84.407891,115.9866 86.173558,110.36991 87.790061,106.86768 C 90.750897,100.4529 92.116618,93.277608 92.365217,82.830496 C 92.52765,76.004411 94.476179,73.496034 102.86857,69.309342 L 108.5,66.5 L 103.25,66.19774 C 100.3625,66.031498 98,65.534263 98,65.092775 C 98,64.20415 113.39384,56.916444 119.17001,55.070533 C 121.18851,54.425472 123.42038,53.198395 124.12972,52.343695 C 126.07601,49.998565 135.71733,43.668342 142.72148,40.13686 C 148.14944,37.400096 149.9644,37 156.95131,37 L 164.95966,37 L 160.47983,30.074894 C 158.01592,26.266086 156,22.660441 156,22.06235 C 156,21.464258 157.9125,22.192012 160.25,23.67958 C 166.16397,27.44319 183.06283,34.989305 185.59023,34.995159 C 186.73986,34.997821 190.11486,36.336912 193.09023,37.970915 C 196.0656,39.604918 200.91677,41.448088 203.8706,42.06685 C 211.2266,43.607765 221.61535,48.412766 222.93924,50.886462 C 224.30317,53.435003 231.32867,58.297617 236.12882,60.015471 C 240.05865,61.421862 240.41931,61.328742 253.25,55.594836 C 256.4125,54.181547 259,53.169748 259,53.346392 C 259,53.523037 256.61816,55.308 253.70702,57.312977 C 247.59082,61.525365 242.35962,66.692956 243.27994,67.613272 C 243.62871,67.962045 246.61497,66.841739 249.91607,65.123703 C 255.19044,62.378691 256.86258,62.007684 263.70904,62.063386 C 268.88852,62.105526 270.81129,62.405698 269.44533,62.958906 C 268.31526,63.416579 265.95276,65.428714 264.19533,67.430316 C 261.69962,70.272765 261,71.97813 261,75.219072 C 261,79.679756 264.39594,87.83097 266.60798,88.67981 C 269.9525,89.963223 272.44942,96.397843 273.12958,105.48613 C 275.28201,134.24664 276.30335,140.34702 279.39582,142.91354 C 280.45714,143.79436 281,145.85655 281,149.00743 C 281,152.91311 280.57398,154.04912 278.63216,155.32145 C 276.5583,156.6803 276.20641,157.84297 275.79783,164.68646 C 275.27235,173.48801 272.63076,179.88538 268.36883,182.6779 C 266.93584,183.61684 263.37586,188.08602 260.45778,192.60941 C 257.5397,197.13281 251.96794,204.18594 248.07609,208.28305 C 244.18424,212.38015 241,216.04898 241,216.43599 C 241,216.823 242.29108,219.02073 243.86907,221.31982 C 247.50383,226.6156 254.78427,241.06545 255.37411,244.15444 C 255.62045,245.4445 256.78024,249.95431 257.95142,254.17625 C 259.1226,258.39818 260.49143,264.37522 260.99325,267.45855 C 261.49508,270.54189 262.82689,274.23576 263.95283,275.66716 C 265.38501,277.48789 266,279.74617 266,283.18452 C 266,293.02268 260.51134,298.38829 250.1783,298.65151 C 246.69997,298.74011 243.67526,298.9914 243.45673,299.20993 C 243.23821,299.42846 244.26228,301.29785 245.73247,303.36413 C 247.97789,306.51998 248.2131,307.42912 247.20276,309.04694 C 245.43606,311.87588 245.70394,312.70888 248.6154,313.43961 C 250.86207,314.00349 251.15086,314.49568 250.66385,316.93076 C 250.15722,319.4639 250.49072,319.92721 253.79845,321.28557 C 257.15677,322.66469 250.4529,322.80479 181.5,322.79644 C 124.5718,322.78955 106.21035,322.50742 108.33071,321.67219 z M 156.30201,181.55606 C 165.21817,178.37574 173.48415,169.80504 176.6794,160.42751 L 178.2798,155.73059 L 179.73524,160.03619 C 185.54113,177.21167 203.76192,187.39113 217.5,181.13434 C 222.49584,178.85906 228.33689,172.48261 230.0988,167.38071 C 236.62879,148.47204 220.93503,125.04224 201.71788,125.00977 C 195.08867,124.99857 189.74198,126.92733 185.65842,130.80305 C 182.45833,133.84026 179.00393,140.01053 178.99227,142.71016 C 178.98801,143.69457 177.52551,141.59312 175.74227,138.04026 C 173.4528,133.47882 171.22575,130.68708 168.16386,128.54026 C 164.19228,125.75561 163.14134,125.5 155.66386,125.5 C 145.91106,125.5 141.64412,127.25788 135.08636,133.97745 C 128.16987,141.0646 125.5,147.75506 125.5,158 C 125.5,165.48853 125.82989,167.0612 128.2723,171.21611 C 134.268,181.41576 145.29314,185.48285 156.30201,181.55606 z M 161.04568,158.55504 C 158.96648,156.04975 160.16253,152.53891 163.21512,152.18694 C 165.45228,151.929 166.05036,152.35247 166.61258,154.59253 C 167.12103,156.61836 166.82637,157.65379 165.45633,158.65559 C 163.1324,160.35489 162.52799,160.34111 161.04568,158.55504 z M 193.54367,158.65559 C 192.17363,157.65379 191.87897,156.61836 192.38742,154.59253 C 192.94964,152.35247 193.54772,151.929 195.78488,152.18694 C 198.83747,152.53891 200.03352,156.04975 197.95432,158.55504 C 196.47201,160.34111 195.8676,160.35489 193.54367,158.65559 z"
       id="path2214" />
    <path
       style="fill:#4fa9cf"
       d="M 108.83547,321.74137 C 110.65139,320.86798 111.07923,319.99318 110.75867,317.80905 C 110.48356,315.9346 110.78783,315 111.67319,315 C 113.25304,315 113.36749,313.09677 112.00338,309.5089 C 111.25436,307.53882 111.39655,306.13383 112.57574,303.85354 C 113.43867,302.18481 113.91204,300.21315 113.62766,299.47208 C 113.34329,298.73101 114.77323,296.37356 116.80531,294.2333 C 121.47834,289.31151 126,281.87939 126,279.12027 C 126,276.66259 122.6972,273 120.48095,273 C 119.41761,273 119.11852,272.325 119.48398,270.75 C 121.76649,260.91331 122.92188,253.53033 122.2734,252.92572 C 121.84803,252.52913 117.9,250.74429 113.5,248.95943 C 109.1,247.17456 105.14669,245.4027 104.71487,245.02197 C 104.28304,244.64124 104.80017,242.29908 105.86404,239.81718 C 107.84044,235.20644 118.76741,217 119.55825,217 C 119.79867,217 122.13391,218.5229 124.74769,220.38422 C 129.95433,224.09198 140.2733,229.4795 146.11792,231.5416 C 150.93823,233.24231 150.916,233.30679 151.69014,215.38291 C 152.02888,207.53988 152.57468,200.70442 152.90302,200.19301 C 153.23136,199.68159 157.91587,197.12051 163.31305,194.50172 C 172.67748,189.95797 173.43181,189.76223 179.81305,190.22031 C 187.65782,190.78344 192.27866,192.90633 200.36212,199.66088 L 206.1533,204.5 L 205.44822,218.90069 L 204.74314,233.30137 L 207.88979,232.67204 C 213.49631,231.55074 226.15827,225.78891 232.79303,221.33982 C 236.35252,218.95292 239.54275,217.00394 239.88242,217.00875 C 241.95514,217.0381 255.71793,243.02934 254.61001,244.82201 C 254.29824,245.32646 249.98345,247.20305 245.02158,248.99222 C 234.92313,252.63355 235.28833,251.97621 237.51736,262.49963 C 239.36452,271.22017 239.37388,273 237.57258,273 C 236.7875,273 235.18706,274.21802 234.01606,275.70672 C 231.6157,278.75828 231.94333,282.51614 234.8263,285 C 235.78386,285.825 237.17304,287.97161 237.91337,289.77025 C 238.65369,291.56888 240.62984,294.19363 242.3048,295.60302 C 244.31578,297.29515 244.95896,298.40733 244.19839,298.87739 C 243.40082,299.37031 243.8668,300.74201 245.71355,303.33754 C 248.30783,306.9837 248.33421,307.16422 246.68175,309.9616 L 244.983,312.83736 L 248.05065,313.51113 C 250.78067,314.11074 251.05172,314.48805 250.51333,316.93931 C 249.97216,319.40323 250.30869,319.85783 253.70418,321.24968 C 257.18803,322.67776 251.29482,322.80807 182,322.83514 C 125.44173,322.85724 107.08593,322.58283 108.83547,321.74137 z M 176.39816,230.5 C 177.00417,229.4 177.5888,228.3362 177.69734,228.136 C 177.80587,227.93579 179.10406,228.72329 180.5822,229.886 C 185.44912,233.71432 196.09721,231.50576 200.64452,225.72479 C 202.44695,223.43337 202.55085,222.43041 201.76137,214.94402 C 200.28655,200.95887 197.72253,198.44944 183.82158,197.38615 C 174.30913,196.65855 163.99855,198.71328 160.45437,202.04286 C 157.8534,204.48636 155.45499,217.81463 156.50156,224.00921 C 157.15231,227.86101 157.6337,228.40054 162.35531,230.57002 C 168.6659,233.46959 174.77893,233.43911 176.39816,230.5 z M 170.67559,216.54836 C 166.34347,215.00346 165.37709,214.28958 166.32911,213.33756 C 166.69345,212.97322 168.05981,213.16185 169.36546,213.75674 C 175.1103,216.37427 181.43981,216.28386 190.75,213.45129 C 194.67657,212.25665 193.20494,214.70084 188.97976,216.39142 C 184.12071,218.33563 175.88531,218.40624 170.67559,216.54836 z M 264.88923,182.88157 C 265.4061,181.57171 266.55373,179.08101 267.43951,177.34669 C 268.42891,175.40948 268.97782,172.1314 268.86282,168.84669 C 268.75986,165.90601 269.02487,159.225 269.45173,154 C 270.07147,146.41406 269.88773,143.19038 268.53977,138 C 266.05707,128.4403 262.97568,123.92471 250.52589,111.60179 C 244.35704,105.4958 237.42302,97.687061 235.11697,94.249024 L 230.92415,87.998047 L 227.00191,89.999024 C 221.42917,92.842028 216.85749,92.496823 208.12586,88.573702 C 200.25005,85.035103 189.73278,83 179.32134,83 C 174.04343,83 173.41065,83.294179 165.6437,89.358737 C 156.4567,96.532098 145.68612,103.65162 139,106.97063 L 134.5,109.20445 L 141,102.486 C 144.575,98.790847 150.79198,93.119845 154.81551,89.883771 C 158.83904,86.647697 161.8536,84 161.51453,84 C 161.17546,84 155.52098,86.430918 148.94902,89.40204 C 142.37706,92.373162 137,94.58327 137,94.313391 C 137,94.043513 139.01111,91.523704 141.46913,88.713816 C 143.92715,85.903928 145.77579,83.442458 145.57722,83.243883 C 144.9681,82.634769 138.03484,85.827435 135.30696,87.973187 C 131.93766,90.623475 125.45328,99.287676 122.44632,105.15711 C 121.13409,107.71852 117.90935,112.74871 115.28023,116.33532 C 112.6511,119.92192 109.29116,124.65447 107.81369,126.8521 C 105.70732,129.98517 104.08819,131.14003 100.31369,132.20155 C 95.062106,133.67849 95.438264,133.16168 88.557247,148.35379 C 84.541618,157.21961 84.374302,158.79666 86.556043,167.21628 C 88.295892,173.93057 87.942248,175.1627 85.031363,172.52838 C 81.02732,168.90477 79.001489,162.85181 78.975554,154.43428 C 78.962109,150.07042 78.492908,144.51213 77.932885,142.08251 C 76.671095,136.60833 77.357686,133.25529 80.485855,129.61481 C 81.924768,127.94025 83.16343,124.90909 83.537134,122.14796 C 84.250899,116.87428 87.653292,106.12287 89.19717,104.2625 C 90.557082,102.62381 92.955527,88.809388 92.980325,82.472506 C 93.006216,75.856702 94.69206,73.683811 103.074,69.462734 C 106.8833,67.544401 110,65.864771 110,65.730222 C 110,65.595674 107.96889,65.647129 105.48641,65.844569 C 97.002292,66.519338 97.020823,65.19086 105.5525,61.106528 C 109.92363,59.013961 115.3,56.713958 117.5,55.995411 C 119.7,55.276864 123.95416,52.692882 126.95369,50.253228 C 129.95322,47.813574 136.02822,43.952855 140.45369,41.673854 C 147.42106,38.08584 149.5987,37.461143 156.69367,37.015107 L 164.88734,36.5 L 160.4924,29.53461 C 158.07517,25.703645 156.246,22.420671 156.42755,22.239112 C 156.60911,22.057554 159.11502,23.298956 161.99624,24.997783 C 169.10882,29.191512 178.46125,33.340453 184.5,34.980947 C 187.25,35.728015 191.75,37.561467 194.5,39.055285 C 197.25,40.549103 201.30615,42.036083 203.51367,42.359686 C 210.40709,43.370199 219.89402,47.809706 223.19567,51.570075 C 226.25487,55.054308 232.14093,58.987697 237.08215,60.849787 C 239.20121,61.648349 241.26366,61.121732 248.58215,57.91344 C 255.04669,55.079503 256.6747,54.622048 254.5,56.250579 C 249.51392,59.984427 243.95411,65.217224 242.92001,67.149471 C 242.0514,68.772466 242.21412,68.869089 244.40999,68.034223 C 245.76578,67.518753 249.13821,65.950178 251.90429,64.548502 C 255.83123,62.558569 258.42023,62.001444 263.71676,62.006589 L 270.5,62.013178 L 267.6413,63.897886 C 259.1595,69.489832 258.84105,82.122292 266.99597,89.497639 C 270.82411,92.959828 272.26616,97.16503 273.1635,107.48299 C 273.64265,112.99235 274.45158,122 274.96114,127.5 C 275.47069,133 275.91289,137.80297 275.9438,138.17327 C 275.97471,138.54358 277.16691,140.23335 278.59314,141.92833 C 280.90029,144.67021 281.11112,145.55665 280.50471,149.96573 C 280.02377,153.46259 279.29549,155.08883 278.03065,155.49027 C 276.05171,156.11836 275.3629,158.78311 275.07649,166.91888 C 274.79823,174.8228 272.25633,179.85618 266.72473,183.45671 L 263.94946,185.26314 L 264.88923,182.88157 z M 160.30947,157.36408 C 158.83624,153.52491 164.14928,150.70422 166.33302,154.16618 C 167.09572,155.3753 167.02345,156.26682 166.06957,157.41618 C 164.35901,159.47727 161.1091,159.44787 160.30947,157.36408 z M 193.05062,157.56099 C 191.56997,155.77692 192.28019,153.21345 194.49005,152.36544 C 196.63426,151.54263 199.15564,153.91117 198.79826,156.41249 C 198.43185,158.97695 194.82407,159.69787 193.05062,157.56099 z M 228,118.11243 C 220.04313,109.80923 208.82218,105.03787 197.19098,105.01187 C 193.90895,105.00453 192.11793,104.6182 192.5,104 C 193.35273,102.62026 202.26519,102.78279 209.55408,104.311 C 217.22124,105.91853 223.91882,109.82771 228.30546,115.25562 C 231.33224,119.00087 234.57452,124.13097 233.78518,123.92591 C 233.62833,123.88517 231.025,121.2691 228,118.11243 z M 132.5,116.58048 C 143.07211,109.78114 157.9669,108.4218 168.14764,113.32719 C 171.25383,114.82385 174.34688,116.71303 175.02106,117.52538 C 175.74283,118.39505 173.83179,117.87112 170.37343,116.25118 C 165.04974,113.75751 163.47042,113.5048 153.5,113.5513 C 144.7339,113.59218 141.48459,114.02314 137.5,115.67341 C 129.20144,119.11037 128.31683,119.27085 132.5,116.58048 z"
       id="path2212" />
    <path
       style="fill:#fc9802"
       d="M 109.86737,321.36766 C 126.22194,314.23215 157.84501,313.09558 177.80326,318.92596 C 180.35106,319.67025 182.86675,319.40741 188.80326,317.77667 C 195.28046,315.99741 199.4313,315.64954 215,315.5812 C 231.29611,315.50967 234.49061,315.77088 241.81542,317.77382 C 260.95773,323.00823 262.99936,322.83685 181.5,322.83685 C 114.67109,322.83685 106.86687,322.67679 109.86737,321.36766 z M 116,312.22341 C 118.56599,311.04053 122.96917,310.56047 132.5,310.42449 L 145.5,310.23902 L 134.5,310.99986 C 128.45,311.41832 121.7,312.2538 119.5,312.85649 C 113.74626,314.43272 111.92286,314.1029 116,312.22341 z M 237.75268,312.41935 C 237.43333,312.09999 231.39583,311.49182 224.33602,311.06786 L 211.5,310.29702 L 224.5,310.15952 C 238.14548,310.01518 245,310.67433 245,312.13084 C 245,313.0915 238.67656,313.34323 237.75268,312.41935 z M 164.5,305.84132 C 155.7,305.47905 145.35,304.68085 141.5,304.06755 C 133.36311,302.77134 113.62786,298.91256 113.22549,298.5391 C 113.07451,298.39897 114.64951,296.49728 116.72549,294.31312 C 121.46656,289.325 126,281.89863 126,279.12027 C 126,276.63898 122.68975,273 120.43261,273 C 119.41675,273 119.04052,272.38421 119.36338,271.25 C 121.3449,264.28909 123.09063,253.69945 122.36851,253.02083 C 121.89083,252.57193 117.9,250.74429 113.5,248.95943 C 109.1,247.17456 105.14669,245.4027 104.71487,245.02197 C 104.28304,244.64124 104.80017,242.29908 105.86404,239.81718 C 107.84044,235.20644 118.76741,217 119.55825,217 C 119.79867,217 122.13391,218.5229 124.74769,220.38422 C 129.97912,224.10963 140.28005,229.48188 146.18988,231.56699 C 149.80282,232.84171 150.01118,232.80014 150.52021,230.70307 C 150.81433,229.49138 151.4043,222.1008 151.83126,214.27955 C 152.25823,206.45831 152.80836,199.90295 153.05378,199.71208 C 153.2992,199.52121 157.80185,197.25791 163.05966,194.68252 C 170.97787,190.80401 173.55345,190.008 178.05966,190.0466 C 185.27696,190.10843 192.70629,193.29453 200.10302,199.5 L 206.06286,204.5 L 205.38934,218.90342 L 204.71581,233.30684 L 207.87612,232.67478 C 213.49495,231.55101 226.15166,225.79335 232.79303,221.33982 C 236.35252,218.95292 239.54275,217.00394 239.88242,217.00875 C 241.95514,217.0381 255.71793,243.02934 254.61001,244.82201 C 254.29824,245.32646 249.98345,247.20305 245.02158,248.99222 C 234.84323,252.66237 235.02569,252.33555 237.48,262.5 C 239.34278,270.21467 239.36734,273 237.57258,273 C 236.7875,273 235.18706,274.21802 234.01606,275.70672 C 231.6157,278.75828 231.94333,282.51614 234.8263,285 C 235.78386,285.825 237.17304,287.97161 237.91337,289.77025 C 238.65369,291.56888 240.60755,294.17488 242.25528,295.56135 C 243.903,296.94781 245.05123,298.28211 244.80689,298.52644 C 244.19161,299.14173 227.17998,302.56636 217.5,304.02363 C 205.69825,305.80032 182.6802,306.58975 164.5,305.84132 z M 175.41821,232.39301 C 176.2882,232.05917 177,230.93417 177,229.89301 C 177,227.45197 178.22804,227.48951 180.5,230 C 183.19247,232.97514 189.99311,232.67284 196.18504,229.30277 C 198.91068,227.81929 201.51837,225.89993 201.97993,225.03751 C 203.15625,222.83953 201.17321,205.97041 199.42034,203.26393 C 196.81498,199.24115 193.7904,198.09593 183.94343,197.40375 C 176.40682,196.87398 173.18301,197.09254 168.4623,198.45329 C 159.75435,200.96338 158.41394,202.61004 156.92343,212.62858 C 155.57307,221.70512 156.32649,227.68134 159,229.10007 C 165.97063,232.79911 171.48023,233.90416 175.41821,232.39301 z M 170.75,216.40009 C 168.1375,215.59675 166,214.45061 166,213.85311 C 166,213.18093 166.85783,213.03984 168.25,213.48306 C 176.62682,216.14993 180.18046,216.41005 186.31678,214.80551 C 192.50759,213.18671 194.73126,213.28317 191.97104,215.05079 C 187.1382,218.14569 178.26217,218.71005 170.75,216.40009 z M 237.5,304.94263 C 239.7,304.48758 242.625,304.14257 244,304.17594 C 246.27771,304.23123 246.23325,304.30451 243.5,305 C 241.85,305.41985 238.925,305.76486 237,305.76669 L 233.5,305.77 L 237.5,304.94263 z M 118.5,304 C 114.65095,303.31084 114.71699,303.27846 120.25,303.14191 C 123.51127,303.06142 126,303.43282 126,304 C 126,305.09055 124.59085,305.09055 118.5,304 z M 265,182.86803 C 265,182.24545 265.9267,180.23664 267.05933,178.40401 C 268.5494,175.99303 269.06942,173.61075 268.94054,169.78597 C 268.84257,166.87869 269.10591,160.37051 269.52574,155.32335 C 271.10226,136.3706 267.75055,128.58097 250.61863,111.3818 C 243.95338,104.69039 236.925,96.712376 235,93.652886 C 232.56923,89.789561 231.04176,88.2703 230,88.679785 C 219.53441,92.793515 216.33482,92.710848 207.174,88.090038 C 200.92699,84.938987 190.73489,83 180.41869,83 L 173.72049,83 L 164.11024,90.346868 C 153.97494,98.095136 150.23819,100.56611 140.5,105.95944 L 134.5,109.28244 L 141.5,102.08144 C 145.35,98.120888 151.7625,92.369959 155.75,89.301599 C 159.7375,86.233238 163,83.583102 163,83.412407 C 163,82.972445 156.98683,85.533137 146.25,90.545353 C 141.1625,92.920322 137,94.622815 137,94.328669 C 137,94.034524 139.06916,91.492459 141.59812,88.679638 C 144.12709,85.866816 145.71282,83.404274 145.12196,83.207321 C 144.53111,83.010369 141.73752,84.106573 138.91399,85.643331 C 133.22577,88.739249 126.95424,96.148215 122.52898,105 C 121.0167,108.025 118.83993,111.52383 117.69172,112.77518 C 116.5435,114.02653 113.3294,118.51613 110.54927,122.75207 C 106.83361,128.41342 104.70045,130.6912 102.49724,131.34996 C 95.617486,133.40703 94.879823,134.02151 92.407605,139.75476 C 91.045042,142.91464 88.820919,147.75713 87.465109,150.51585 C 84.603421,156.33863 84.385415,160.56746 86.568032,167.91713 C 87.430449,170.82121 87.925697,173.40764 87.668583,173.66475 C 86.821566,174.51177 82.784636,169.57444 80.992796,165.5 C 79.725765,162.61891 79.061009,157.5838 78.616364,147.5 L 77.999034,133.5 L 80.881058,129.2759 C 82.813228,126.44397 83.995706,123.14819 84.468906,119.2759 C 84.857109,116.09916 86.435637,110.8 87.976745,107.5 C 91.046433,100.92683 93,91.356116 93,82.890593 C 93,75.886991 94.48137,73.872944 102.55668,69.897484 C 106.14133,68.132762 109.31379,66.301292 109.60658,65.82755 C 109.89937,65.353808 107.63267,65.260763 104.56946,65.620782 C 101.10241,66.028266 99,65.899668 99,65.280115 C 99,64.275185 115.0157,56.53613 119.34296,55.450059 C 120.6288,55.127334 124.11516,52.860779 127.09042,50.41327 C 130.06569,47.965761 136.39648,43.946521 141.15885,41.481627 C 149.18628,37.326807 150.37125,37 157.40885,37 C 161.58398,37 165,36.790184 165,36.533741 C 165,36.277299 163.19795,33.279354 160.99543,29.871641 C 158.79292,26.463927 157.11519,23.55148 157.26713,23.399536 C 157.41908,23.247591 162.85308,25.751449 169.3427,28.963665 C 175.83231,32.175881 182.79755,35.11019 184.821,35.484353 C 186.84445,35.858516 190.75,37.421349 193.5,38.957316 C 196.25,40.493283 200.44882,42.042363 202.83072,42.399717 C 210.37902,43.532181 218.98303,47.693834 224.43363,52.848782 C 227.26918,55.530527 231.81102,58.707512 234.52662,59.908749 L 239.46406,62.092816 L 246.48203,58.955313 C 256.80039,54.342313 257.02093,54.334867 250.89873,58.806192 C 246.06519,62.336358 242,66.737378 242,68.440066 C 242,69.121314 246.38116,67.446436 252.44634,64.446522 C 256.21629,62.581862 258.95136,62.009522 263.94634,62.040038 C 270.04896,62.07732 270.32794,62.174064 268,63.445729 C 263.72989,65.778325 261,70.438125 261,75.394408 C 261,81.379868 262.34005,84.560373 266.98513,89.599694 C 269.35609,92.171887 271.06166,95.124921 271.35182,97.160227 C 272.50141,105.22384 274.21472,120.23303 274.96146,128.78192 C 275.61993,136.32027 276.25852,138.76554 278.36098,141.79939 C 280.47862,144.85514 280.84029,146.25971 280.3484,149.51748 C 280.01166,151.74765 278.85579,154.21237 277.7215,155.11898 C 276.09982,156.41514 275.56202,158.40915 275.02442,165.11898 C 274.31031,174.03169 273.28887,176.85611 269.19072,181.25 C 266.47337,184.16344 265,184.73231 265,182.86803 z M 161.01057,157.51273 C 159.25731,155.40018 160.50776,153 163.36163,153 C 166.14652,153 167.57275,155.60495 165.89481,157.62675 C 164.41165,159.41385 162.55233,159.37044 161.01057,157.51273 z M 193.10519,157.62675 C 191.42725,155.60495 192.85348,153 195.63837,153 C 198.49224,153 199.74269,155.40018 197.98943,157.51273 C 196.44767,159.37044 194.58835,159.41385 193.10519,157.62675 z M 228.61816,118.31134 C 221.63553,110.54879 209.00522,105 198.3185,105 C 194.98096,105 193,104.57221 193,103.85147 C 193,102.16416 208.59647,103.46408 214.07772,105.60823 C 220.46906,108.10839 226.33516,112.54633 230.00716,117.6595 C 231.76963,120.1137 233.05153,122.23532 232.85583,122.37421 C 232.66012,122.51311 230.75317,120.68481 228.61816,118.31134 z M 135.25605,115.51696 C 146.89374,109.24931 157.76179,108.76269 168.86198,114.01225 C 176.04754,117.41048 177.22172,118.8849 170.25,115.75519 C 166.89218,114.24782 162.80737,113.49742 156.31296,113.1949 C 147.12496,112.7669 147.03542,112.78312 132,117.59804 C 131.175,117.86224 132.64022,116.92575 135.25605,115.51696 z"
       id="path2210" />
    <path
       style="fill:#323231"
       d="M 109.86737,321.36766 C 126.22194,314.23215 157.84501,313.09558 177.80326,318.92596 C 180.35106,319.67025 182.86675,319.40741 188.80326,317.77667 C 195.28046,315.99741 199.4313,315.64954 215,315.5812 C 231.29611,315.50967 234.49061,315.77088 241.81542,317.77382 C 260.95773,323.00823 262.99936,322.83685 181.5,322.83685 C 114.67109,322.83685 106.86687,322.67679 109.86737,321.36766 z M 116,312.22341 C 118.56599,311.04053 122.96917,310.56047 132.5,310.42449 L 145.5,310.23902 L 134.5,310.99986 C 128.45,311.41832 121.7,312.2538 119.5,312.85649 C 113.74626,314.43272 111.92286,314.1029 116,312.22341 z M 237.75268,312.41935 C 237.43333,312.09999 231.39583,311.49182 224.33602,311.06786 L 211.5,310.29702 L 224.5,310.15952 C 238.14548,310.01518 245,310.67433 245,312.13084 C 245,313.0915 238.67656,313.34323 237.75268,312.41935 z M 237.5,304.94263 C 239.7,304.48758 242.625,304.14257 244,304.17594 C 246.27771,304.23123 246.23325,304.30451 243.5,305 C 241.85,305.41985 238.925,305.76486 237,305.76669 L 233.5,305.77 L 237.5,304.94263 z M 118.5,304 C 114.65095,303.31084 114.71699,303.27846 120.25,303.14191 C 123.51127,303.06142 126,303.43282 126,304 C 126,305.09055 124.59085,305.09055 118.5,304 z M 120.54933,268 C 121.21541,262.3029 123.76111,251.83403 123.8321,254.5 C 123.8614,255.6 123.01638,260.1 121.95429,264.5 C 120.78874,269.32861 120.23178,270.71609 120.54933,268 z M 237.00027,266.32931 C 236.35432,263.12319 235.46284,258.8125 235.01921,256.75 C 234.57557,254.6875 234.52751,253 234.91241,253 C 235.73454,253 239.32594,271.00739 238.64051,271.69282 C 238.38433,271.94901 237.64622,269.53542 237.00027,266.32931 z M 175.57744,247.1253 C 175.28011,246.64421 169.96605,244.60762 163.76842,242.59954 C 157.57079,240.59146 151.88988,238.56659 151.14419,238.09983 C 150.02806,237.40121 149.98387,235.45417 150.89419,227.08637 C 151.50238,221.49573 152.00614,213.90171 152.01365,210.21078 C 152.02116,206.51985 152.27619,202.6 152.58038,201.5 C 152.946,200.17787 156.45086,197.89006 162.92124,194.75 C 170.99689,190.8309 173.65283,190.00815 178.10451,190.0466 C 185.29367,190.1087 192.7575,193.32523 200.04078,199.5 L 205.93839,204.5 L 205.48339,220 L 205.02839,235.5 L 199.76419,237.19343 C 196.86889,238.12482 192.00156,239.58224 188.9479,240.43215 C 185.46774,241.40076 182.31918,243.10119 180.51081,244.98872 C 177.49132,248.14039 176.47644,248.57992 175.57744,247.1253 z M 175.41821,232.39301 C 176.2882,232.05917 177,230.93417 177,229.89301 C 177,227.45197 178.22804,227.48951 180.5,230 C 183.19247,232.97514 189.99311,232.67284 196.18504,229.30277 C 198.91068,227.81929 201.51837,225.89993 201.97993,225.03751 C 203.15625,222.83953 201.17321,205.97041 199.42034,203.26393 C 196.81498,199.24115 193.7904,198.09593 183.94343,197.40375 C 176.40682,196.87398 173.18301,197.09254 168.4623,198.45329 C 159.75435,200.96338 158.41394,202.61004 156.92343,212.62858 C 155.57307,221.70512 156.32649,227.68134 159,229.10007 C 165.97063,232.79911 171.48023,233.90416 175.41821,232.39301 z M 170.75,216.40009 C 168.1375,215.59675 166,214.45061 166,213.85311 C 166,213.18093 166.85783,213.03984 168.25,213.48306 C 176.62682,216.14993 180.18046,216.41005 186.31678,214.80551 C 192.50759,213.18671 194.73126,213.28317 191.97104,215.05079 C 187.1382,218.14569 178.26217,218.71005 170.75,216.40009 z M 265,182.86803 C 265,182.24545 265.9267,180.23664 267.05933,178.40401 C 268.5494,175.99303 269.06942,173.61075 268.94054,169.78597 C 268.84257,166.87869 269.10591,160.37051 269.52574,155.32335 C 271.10226,136.3706 267.75055,128.58097 250.61863,111.3818 C 243.95338,104.69039 236.925,96.712376 235,93.652886 C 232.56923,89.789561 231.04176,88.2703 230,88.679785 C 219.53441,92.793515 216.33482,92.710848 207.174,88.090038 C 200.92699,84.938987 190.73489,83 180.41869,83 L 173.72049,83 L 164.11024,90.346868 C 153.97494,98.095136 150.23819,100.56611 140.5,105.95944 L 134.5,109.28244 L 141.5,102.08144 C 145.35,98.120888 151.7625,92.369959 155.75,89.301599 C 159.7375,86.233238 163,83.583102 163,83.412407 C 163,82.972445 156.98683,85.533137 146.25,90.545353 C 141.1625,92.920322 137,94.622815 137,94.328669 C 137,94.034524 139.06916,91.492459 141.59812,88.679638 C 144.12709,85.866816 145.71282,83.404274 145.12196,83.207321 C 144.53111,83.010369 141.73752,84.106573 138.91399,85.643331 C 133.22577,88.739249 126.95424,96.148215 122.52898,105 C 121.0167,108.025 118.83993,111.52383 117.69172,112.77518 C 116.5435,114.02653 113.3294,118.51613 110.54927,122.75207 C 106.83361,128.41342 104.70045,130.6912 102.49724,131.34996 C 95.617486,133.40703 94.879823,134.02151 92.407605,139.75476 C 91.045042,142.91464 88.820919,147.75713 87.465109,150.51585 C 84.603421,156.33863 84.385415,160.56746 86.568032,167.91713 C 87.430449,170.82121 87.925697,173.40764 87.668583,173.66475 C 86.821566,174.51177 82.784636,169.57444 80.992796,165.5 C 79.725765,162.61891 79.061009,157.5838 78.616364,147.5 L 77.999034,133.5 L 80.881058,129.2759 C 82.813228,126.44397 83.995706,123.14819 84.468906,119.2759 C 84.857109,116.09916 86.435637,110.8 87.976745,107.5 C 91.046433,100.92683 93,91.356116 93,82.890593 C 93,75.886991 94.48137,73.872944 102.55668,69.897484 C 106.14133,68.132762 109.31379,66.301292 109.60658,65.82755 C 109.89937,65.353808 107.63267,65.260763 104.56946,65.620782 C 101.10241,66.028266 99,65.899668 99,65.280115 C 99,64.275185 115.0157,56.53613 119.34296,55.450059 C 120.6288,55.127334 124.11516,52.860779 127.09042,50.41327 C 130.06569,47.965761 136.39648,43.946521 141.15885,41.481627 C 149.18628,37.326807 150.37125,37 157.40885,37 C 161.58398,37 165,36.790184 165,36.533741 C 165,36.277299 163.19795,33.279354 160.99543,29.871641 C 158.79292,26.463927 157.11519,23.55148 157.26713,23.399536 C 157.41908,23.247591 162.85308,25.751449 169.3427,28.963665 C 175.83231,32.175881 182.79755,35.11019 184.821,35.484353 C 186.84445,35.858516 190.75,37.421349 193.5,38.957316 C 196.25,40.493283 200.44882,42.042363 202.83072,42.399717 C 210.37902,43.532181 218.98303,47.693834 224.43363,52.848782 C 227.26918,55.530527 231.81102,58.707512 234.52662,59.908749 L 239.46406,62.092816 L 246.48203,58.955313 C 256.80039,54.342313 257.02093,54.334867 250.89873,58.806192 C 246.06519,62.336358 242,66.737378 242,68.440066 C 242,69.121314 246.38116,67.446436 252.44634,64.446522 C 256.21629,62.581862 258.95136,62.009522 263.94634,62.040038 C 270.04896,62.07732 270.32794,62.174064 268,63.445729 C 263.72989,65.778325 261,70.438125 261,75.394408 C 261,81.379868 262.34005,84.560373 266.98513,89.599694 C 269.35609,92.171887 271.06166,95.124921 271.35182,97.160227 C 272.50141,105.22384 274.21472,120.23303 274.96146,128.78192 C 275.61993,136.32027 276.25852,138.76554 278.36098,141.79939 C 280.47862,144.85514 280.84029,146.25971 280.3484,149.51748 C 280.01166,151.74765 278.85579,154.21237 277.7215,155.11898 C 276.09982,156.41514 275.56202,158.40915 275.02442,165.11898 C 274.31031,174.03169 273.28887,176.85611 269.19072,181.25 C 266.47337,184.16344 265,184.73231 265,182.86803 z M 161.01057,157.51273 C 159.25731,155.40018 160.50776,153 163.36163,153 C 166.14652,153 167.57275,155.60495 165.89481,157.62675 C 164.41165,159.41385 162.55233,159.37044 161.01057,157.51273 z M 193.10519,157.62675 C 191.42725,155.60495 192.85348,153 195.63837,153 C 198.49224,153 199.74269,155.40018 197.98943,157.51273 C 196.44767,159.37044 194.58835,159.41385 193.10519,157.62675 z M 228.61816,118.31134 C 221.63553,110.54879 209.00522,105 198.3185,105 C 194.98096,105 193,104.57221 193,103.85147 C 193,102.16416 208.59647,103.46408 214.07772,105.60823 C 220.46906,108.10839 226.33516,112.54633 230.00716,117.6595 C 231.76963,120.1137 233.05153,122.23532 232.85583,122.37421 C 232.66012,122.51311 230.75317,120.68481 228.61816,118.31134 z M 135.25605,115.51696 C 146.89374,109.24931 157.76179,108.76269 168.86198,114.01225 C 176.04754,117.41048 177.22172,118.8849 170.25,115.75519 C 166.89218,114.24782 162.80737,113.49742 156.31296,113.1949 C 147.12496,112.7669 147.03542,112.78312 132,117.59804 C 131.175,117.86224 132.64022,116.92575 135.25605,115.51696 z"
       id="path2208" />
    <path
       style="fill:#010101"
       d="M 113.5,320.63348 C 120.58277,317.59205 129.69752,316.5 148,316.5 C 162.7832,316.5 167.96219,316.87461 173.77792,318.36456 C 180.65792,320.12718 181.41278,320.13946 187.58434,318.58921 C 199.4351,315.6124 214.076,314.53233 225.86643,315.76512 C 234.88086,316.70766 251.50359,320.30138 252.91667,321.61319 C 253.14583,321.82594 221.19583,321.98239 181.91667,321.96086 C 122.74118,321.92843 111.01422,321.70091 113.5,320.63348 z M 120.27083,311.39583 C 120.60313,311.06354 121.46563,311.02802 122.1875,311.31689 C 122.98523,311.63611 122.74828,311.87307 121.58333,311.92105 C 120.52917,311.96447 119.93854,311.72812 120.27083,311.39583 z M 236.25,311.28375 C 237.7625,311.05462 240.2375,311.05462 241.75,311.28375 C 243.2625,311.51287 242.025,311.70034 239,311.70034 C 235.975,311.70034 234.7375,311.51287 236.25,311.28375 z M 126.75,310.33772 C 127.4375,310.06031 128.5625,310.06031 129.25,310.33772 C 129.9375,310.61513 129.375,310.84211 128,310.84211 C 126.625,310.84211 126.0625,310.61513 126.75,310.33772 z M 164.26494,242.59886 C 157.53566,240.30592 151.58085,237.98085 151.03203,237.43203 C 150.37222,236.77222 150.36519,234.41277 151.0113,230.46709 C 151.54871,227.18519 151.99597,220.675 152.00521,216 C 152.03643,200.20288 151.71316,200.78503 163.72884,194.88768 C 173.61712,190.03447 174.50715,189.78424 179.70717,190.3954 C 186.77726,191.22635 194.25351,194.80021 200.24519,200.21315 C 205.60741,205.05743 205.62374,205.13801 205.21401,224.73658 L 205,234.97316 L 201.37788,236.48658 C 199.38571,237.31896 196.92759,238 195.91539,238 C 192.63214,238 182.68845,242.22064 180.26712,244.64198 C 178.9702,245.93889 177.59205,246.94776 177.20455,246.88392 C 176.81705,246.82007 170.99422,244.89179 164.26494,242.59886 z M 175.06574,232.96482 C 176.12958,232.39547 177,231.27047 177,230.46482 C 177,228.57462 178.41586,228.59123 180,230.5 C 181.69678,232.54449 191.16493,232.4721 195.29966,230.38303 C 202.42365,226.78363 203.08097,225.50822 202.41958,216.56797 C 201.32734,201.80367 199.29411,199.04801 187.97868,196.99613 C 178.01054,195.18857 164.58017,197.5183 159.91539,201.8642 C 158.40608,203.27034 157.39266,205.74515 156.89498,209.24018 C 155.84872,216.58771 155.86083,226.23181 156.9184,227.90221 C 158.04194,229.67681 167.74589,233.9066 170.81574,233.95984 C 172.0894,233.98193 174.0019,233.53417 175.06574,232.96482 z M 169.25,215.75325 C 167.4625,215.17984 166,214.34574 166,213.8997 C 166,213.45366 167.85658,213.74376 170.12573,214.54436 C 172.39488,215.34496 176.6133,216 179.5,216 C 182.3867,216 186.60512,215.34496 188.87427,214.54436 C 191.14342,213.74376 193,213.44753 193,213.88607 C 193,216.5636 175.95372,217.90375 169.25,215.75325 z M 266.05628,181.35198 C 266.63895,179.81944 267.62504,177.9518 268.2476,177.20166 C 268.87015,176.45153 269.30442,173.51179 269.21263,170.66889 C 269.12085,167.826 269.53181,161.7884 270.12588,157.252 C 270.92236,151.16997 270.90106,147.23089 270.04476,142.252 C 268.03123,130.54444 265.34087,126.21024 250.76738,111.19586 C 237.92742,97.967461 230.88268,88.587136 232.64952,87.071305 C 238.61278,81.955249 243.75153,78.518751 247.69585,77.009208 C 252.33617,75.233293 252.41475,75.137288 250,74.193923 C 229.497,66.184049 228.61952,65.70356 220.45945,58.0181 C 216.03715,53.853011 209.57549,48.546458 206.10022,46.22576 C 200.39239,42.414219 200.10629,42.068027 203.14077,42.644733 C 210.68322,44.078183 219.52409,48.384367 223.5,52.561239 C 227.34351,56.599024 236.40869,62 239.34233,62 C 240.11717,62 243.2685,60.886705 246.34527,59.526012 L 251.93939,57.052024 L 246.9697,61.842174 C 239.14694,69.382304 240.27522,70.909051 250.03086,65.984423 C 253.77258,64.095607 258.3391,62.727263 262.25234,62.322292 L 268.5,61.675738 L 264.77538,65.812658 C 262.72684,68.087963 260.76755,71.077977 260.4214,72.457132 C 259.31667,76.858755 261.92038,84.853713 265.68442,88.617758 C 269.47028,92.403612 272,97.550765 272,101.46788 C 272,104.53494 270.55063,104.64313 263.25,102.12102 C 260.3625,101.12349 258,100.6587 258,101.08815 C 258,101.75491 260.74285,105.26947 272.3193,119.43623 C 273.56879,120.9653 274.2799,123.90432 274.58973,128.81993 C 275.07738,136.55686 276.20779,140.46714 278.77771,143.30686 C 281.21339,145.99826 280.4795,152.95291 277.49102,155.5 C 275.49445,157.20168 275.09014,158.6187 274.78047,165 C 274.36339,173.59445 272.16536,179.034 267.87515,182.0889 L 264.99688,184.13841 L 266.05628,181.35198 z M 85.291287,171.75 C 81.071366,167.13491 79.578224,162.77628 79.381922,154.5 C 79.27756,150.1 78.86953,143.99536 78.475188,140.93413 C 77.523452,133.54592 78.594081,131.67853 90.408863,120.11941 C 99.843567,110.88886 99.939276,110.74817 96.392334,111.32376 C 94.409804,111.64548 91.035494,112.82202 88.893867,113.9383 C 86.75224,115.05458 85,115.80612 85,115.60838 C 85,115.41064 86.091501,112.78078 87.425557,109.76424 C 89.214932,105.71815 91.16817,103.31282 94.872617,100.59351 C 100.45057,96.498912 104.51793,90.792088 103.5871,88.366394 C 102.9653,86.745986 98.586853,86.789692 94.75,88.454606 C 93.204021,89.125447 93,88.576018 93,83.741847 C 93,76.661835 95.047275,74.041814 104.35381,69.21169 L 111.5,65.502797 L 105.61909,65.001399 L 99.738178,64.5 L 104.61909,62.108526 C 107.30359,60.793215 112.10393,58.682716 115.28651,57.418528 L 121.07301,55.120004 L 117.85115,59.310002 C 116.07912,61.614501 114.15019,64.155839 113.56464,64.95742 C 112.97909,65.759001 115.31442,64.089344 118.75427,61.247071 C 127.57404,53.959483 132.57174,51.260073 145.32958,46.892941 C 162.41554,41.044246 171.23116,41.653861 187.98211,49.842431 C 192.67343,52.135747 197.9886,55.876396 202.23211,59.871128 C 209.12783,66.362589 210.18448,68 207.4778,68 C 205.64884,68 192.03032,61.243543 185.45782,57.075387 C 178.37002,52.580434 172.46665,51.724676 156.72998,52.910971 C 139.41966,54.215894 134.27828,56.066708 126.58887,63.761288 C 115.24718,75.110604 105.16905,93.127509 106.18001,100.24666 C 106.45088,102.15413 106.99792,101.69337 109.74396,97.244799 C 111.52813,94.354439 114.67813,90.827824 116.74396,89.407877 C 130.93548,79.653317 137.8702,75.859833 145.87396,73.472955 C 150.61828,72.058106 158.325,69.685389 163,68.200251 C 178.30698,63.337583 187.14645,65.067685 206.15178,76.646107 C 211.01014,79.605921 217.12601,82.896841 219.74259,83.959262 L 224.5,85.890937 L 218.94578,85.945469 C 214.49585,85.989158 212.49604,85.432077 208.88739,83.143539 C 187.36057,69.491632 149.32394,71.991788 127.7328,88.477849 C 121.56116,93.19025 118.01597,99.379041 117.2928,106.70284 C 116.8143,111.54876 115.8241,113.85614 111.25816,120.76476 C 105.37943,129.65973 102.87395,132 99.229745,132 C 96.445404,132 92.459214,136.02795 91.520662,139.78984 C 91.148776,141.28043 89.288156,145.78412 87.385953,149.79804 C 83.684932,157.60773 83.626229,158.96474 86.544477,169.25 C 87.285725,171.8625 87.769896,174 87.620414,174 C 87.470932,174 86.422825,172.9875 85.291287,171.75 z M 161.14079,157.66964 C 159.44159,155.62223 160.83561,152.83448 163.37728,153.19713 C 164.89052,153.41304 165.5,154.21387 165.5,155.9863 C 165.5,158.83906 162.93375,159.83003 161.14079,157.66964 z M 193.36163,157.5 C 192.48403,155.21301 193.71347,153 195.86163,153 C 198.22686,153 199.44122,155.76343 197.89481,157.62675 C 196.39029,159.43958 194.08114,159.37501 193.36163,157.5 z M 224,113.44684 C 219.35755,109.9193 211.49391,106.48825 204.5,104.93861 C 201.08024,104.1809 201.37037,104.12444 206.5,104.54937 C 213.71291,105.14688 221.24658,108.59571 225.95866,113.45735 C 230.20453,117.83798 229.77599,117.83568 224,113.44684 z M 144,112.36296 C 149.105,110.67273 162.29056,110.92697 165.51944,112.7779 C 167.13134,113.70192 166.75545,113.78172 163.5,113.20662 C 158.44507,112.31364 149.82845,112.30031 144,113.17644 L 139.5,113.85289 L 144,112.36296 z"
       id="path2206" />
  </g>
</svg>
