<?xml version="1.0" encoding="UTF-8" standalone="no"?>
<!-- Created with Inkscape (http://www.inkscape.org/) -->
<svg
   xmlns:dc="http://purl.org/dc/elements/1.1/"
   xmlns:cc="http://web.resource.org/cc/"
   xmlns:rdf="http://www.w3.org/1999/02/22-rdf-syntax-ns#"
   xmlns:svg="http://www.w3.org/2000/svg"
   xmlns="http://www.w3.org/2000/svg"
   xmlns:sodipodi="http://sodipodi.sourceforge.net/DTD/sodipodi-0.dtd"
   xmlns:inkscape="http://www.inkscape.org/namespaces/inkscape"
   version="1.0"
   width="303.43048"
   height="372.95239"
   id="svg3642"
   sodipodi:version="0.32"
   inkscape:version="0.45"
   sodipodi:docname="GnomeLogoHorizontal.svg"
   sodipodi:docbase="/tmp"
   inkscape:output_extension="org.inkscape.output.svg.inkscape"
   sodipodi:modified="true">
  <metadata
     id="metadata23">
    <rdf:RDF>
      <cc:Work
         rdf:about="">
        <dc:format>image/svg+xml</dc:format>
        <dc:type
           rdf:resource="http://purl.org/dc/dcmitype/StillImage" />
      </cc:Work>
    </rdf:RDF>
  </metadata>
  <sodipodi:namedview
     inkscape:window-height="709"
     inkscape:window-width="1001"
     inkscape:pageshadow="2"
     inkscape:pageopacity="0.0"
     guidetolerance="10.0"
     gridtolerance="10.0"
     objecttolerance="10.0"
     borderopacity="1.0"
     bordercolor="#666666"
     pagecolor="#ffffff"
     id="base"
     inkscape:zoom="0.65037429"
     inkscape:cx="571.97833"
     inkscape:cy="203.43199"
     inkscape:window-x="10"
     inkscape:window-y="73"
     inkscape:current-layer="svg3642" />
  <defs
     id="defs3644" />
  <g
     transform="matrix(3.1536648,0,0,3.1536648,8.3401501e-3,0)"
     style="fill:#000000;fill-opacity:1;fill-rule:nonzero;stroke:none;stroke-miterlimit:4"
     id="g15043">
    <g
       style="fill:#000000;fill-opacity:1"
       id="g15045">
      <path
         d="M 86.068,0 C 61.466,0 56.851,35.041 70.691,35.041 C 84.529,35.041 110.671,0 86.068,0 z "
         style="fill:#000000;fill-opacity:1"
         id="path15047" />
      <path
         d="M 45.217,30.699 C 52.586,31.149 60.671,2.577 46.821,4.374 C 32.976,6.171 37.845,30.249 45.217,30.699 z "
         style="fill:#000000;fill-opacity:1"
         id="path15049" />
      <path
         d="M 11.445,48.453 C 16.686,46.146 12.12,23.581 3.208,29.735 C -5.7,35.89 6.204,50.759 11.445,48.453 z "
         style="fill:#000000;fill-opacity:1"
         id="path15051" />
      <path
         d="M 26.212,36.642 C 32.451,35.37 32.793,9.778 21.667,14.369 C 10.539,18.961 19.978,37.916 26.212,36.642 L 26.212,36.642 z "
         style="fill:#000000;fill-opacity:1"
         id="path15053" />
      <path
         d="M 58.791,93.913 C 59.898,102.367 52.589,106.542 45.431,101.092 C 22.644,83.743 83.16,75.088 79.171,51.386 C 75.86,31.712 15.495,37.769 8.621,68.553 C 3.968,89.374 27.774,118.26 52.614,118.26 C 64.834,118.26 78.929,107.226 81.566,93.248 C 83.58,82.589 57.867,86.86 58.791,93.913 L 58.791,93.913 z "
         style="fill:#000000;fill-opacity:1"
         id="path15055" />
    </g>
  </g>
  <text
     xml:space="preserve"
     id="text15069"
     style="font-size:24.92482376px;font-style:normal;font-weight:normal;fill:#000000;fill-opacity:1;stroke:none;stroke-width:1pt;stroke-linecap:butt;stroke-linejoin:miter;stroke-opacity:1;font-family:Bitstream Vera Sans"
     y="368.95239"
     x="252.07303"><tspan
       id="tspan15072"
       style="letter-spacing:8.98458672"
       y="368.95239"
       x="252.07303"><tspan
         id="tspan15074"
         style="letter-spacing:0.20497389">TM</tspan></tspan></text>
</svg>
