<?xml version="1.0" encoding="UTF-8" standalone="no"?>
<!-- Created with Inkscape (http://www.inkscape.org/) -->
<svg
   xmlns:dc="http://purl.org/dc/elements/1.1/"
   xmlns:cc="http://web.resource.org/cc/"
   xmlns:rdf="http://www.w3.org/1999/02/22-rdf-syntax-ns#"
   xmlns:svg="http://www.w3.org/2000/svg"
   xmlns="http://www.w3.org/2000/svg"
   xmlns:sodipodi="http://sodipodi.sourceforge.net/DTD/sodipodi-0.dtd"
   xmlns:inkscape="http://www.inkscape.org/namespaces/inkscape"
   width="200"
   height="150"
   id="svg11205"
   sodipodi:version="0.32"
   inkscape:version="0.44"
   version="1.0"
   sodipodi:docbase="/home/andreas/project/gnome marketing stuff"
   sodipodi:docname="guadec-logo.svg">
  <defs
     id="defs11207" />
  <sodipodi:namedview
     id="base"
     pagecolor="#ffffff"
     bordercolor="#666666"
     borderopacity="1.0"
     gridtolerance="10000"
     guidetolerance="10"
     objecttolerance="10"
     inkscape:pageopacity="0.0"
     inkscape:pageshadow="2"
     inkscape:zoom="0.35"
     inkscape:cx="375"
     inkscape:cy="520"
     inkscape:document-units="px"
     inkscape:current-layer="layer1"
     width="200px"
     height="150px"
     inkscape:window-width="1680"
     inkscape:window-height="975"
     inkscape:window-x="0"
     inkscape:window-y="25" />
  <metadata
     id="metadata11210">
    <rdf:RDF>
      <cc:Work
         rdf:about="">
        <dc:format>image/svg+xml</dc:format>
        <dc:type
           rdf:resource="http://purl.org/dc/dcmitype/StillImage" />
      </cc:Work>
    </rdf:RDF>
  </metadata>
  <g
     inkscape:label="Layer 1"
     inkscape:groupmode="layer"
     id="layer1">
    <g
       id="g4786"
       transform="matrix(0.517388,0,0,0.517388,-0.421644,10.33289)">
      <path
         id="guadec-logo-g"
         style="opacity:1;fill:#034079;fill-opacity:1;fill-rule:evenodd;stroke:none;stroke-width:9.9346199;stroke-linecap:round;stroke-linejoin:round;stroke-miterlimit:4;stroke-opacity:0"
         d="M 33.5715,28.4337 L 133.571,28.4337 L 133.571,128.434 L 33.5715,128.434 L 33.5715,28.4337 z M 111.177,37.4199 C 129.071,37.4199 110.068,62.8937 100.003,62.8937 C 89.9372,62.8937 93.2831,37.4199 111.177,37.4199 z M 82.646,40.5821 C 92.7194,39.2752 86.8462,60.0587 81.4865,59.7314 C 76.1247,59.4042 72.5762,41.8891 82.646,40.5821 z M 67.0104,47.5743 C 72.3219,48.9127 71.6133,63.2437 67.6428,64.0532 C 63.1087,64.9798 56.2463,51.1952 64.34,47.8554 C 65.3515,47.438 66.2516,47.3831 67.0104,47.5743 z M 53.2018,58.2557 C 58.1277,58.4215 60.2616,71.1934 56.9262,72.6616 C 53.1143,74.3388 44.4389,63.5053 50.9179,59.0287 C 51.7281,58.4692 52.4981,58.232 53.2018,58.2557 z M 90.2003,66.5479 C 98.5344,66.6889 105.284,69.4039 106.187,74.7698 C 109.089,92.0091 65.0535,98.3071 81.6271,110.925 C 86.8333,114.889 92.1649,111.874 91.3598,105.725 C 90.6878,100.595 109.374,97.4806 107.909,105.233 C 105.991,115.399 95.7503,123.433 86.8624,123.434 C 68.7956,123.434 51.4689,102.422 54.8532,87.2783 C 57.978,73.2854 76.3102,66.3129 90.2003,66.5479 z " />
      <path
         id="guadec-logo-u"
         style="opacity:1;fill:#204a87;fill-opacity:1;fill-rule:evenodd;stroke:none;stroke-width:9.9346199;stroke-linecap:round;stroke-linejoin:round;stroke-miterlimit:4;stroke-opacity:0"
         d="M 138.571,28.4336 L 238.571,28.4336 L 238.571,128.434 L 138.571,128.434 L 138.571,28.4336 z M 199.504,98.1755 C 203.48,90.3091 202.946,78.2988 201.004,71.8888 C 199.084,65.552 217.083,68.5449 217.083,86.5955 C 217.083,102.263 204.178,123.335 188.44,123.433 C 172.701,123.531 160.06,102.617 160.06,86.9503 C 160.06,76.75 164.477,72.5177 169.216,69.8286 C 174.409,66.8818 197.7,63.0594 189.56,71.8465 C 181.191,80.8807 179.625,91.6507 182.44,98.1035 C 185.255,104.556 195.529,106.042 199.504,98.1755 z " />
      <path
         id="guadec-logo-a"
         style="opacity:1;fill:#2a5898;fill-opacity:1;fill-rule:evenodd;stroke:none;stroke-width:9.9346199;stroke-linecap:round;stroke-linejoin:round;stroke-miterlimit:4;stroke-opacity:0"
         d="M 243.571,28.4336 L 343.571,28.4336 L 343.571,128.434 L 243.571,128.434 L 243.571,28.4336 z M 293.708,66.4117 C 277.401,66.5142 264.088,88.5834 264.029,104.99 C 264,113.193 268.447,118.975 274.001,121.754 C 278.121,123.815 287.223,125.831 287.223,115.524 C 287.223,107.279 289.413,105.288 293.49,105.262 C 297.566,105.236 304.896,107.315 304.896,115.56 C 304.896,125.867 309.022,123.815 313.142,121.754 C 318.744,118.951 323.084,112.829 323.113,104.626 C 323.172,88.2201 310.014,66.3091 293.708,66.4117 z M 294.834,78.7806 C 296.61,78.6883 298.265,79.3878 299.592,81.2144 C 302.247,84.8676 302.592,91.6556 298.938,94.3099 C 295.285,96.964 289.006,94.4758 286.352,90.8226 C 285.025,88.996 284.86,87.2219 285.48,85.5735 C 286.099,83.9251 287.504,82.4144 289.33,81.0872 C 291.157,79.7601 293.057,78.8728 294.834,78.7806 z " />
      <path
         id="guadec-logo-d"
         style="opacity:1;fill:#3465a4;fill-opacity:1;fill-rule:evenodd;stroke:none;stroke-width:9.9346199;stroke-linecap:round;stroke-linejoin:round;stroke-miterlimit:4;stroke-opacity:0"
         d="M 33.5715,133.434 L 133.571,133.434 L 133.571,233.434 L 33.5715,233.434 L 33.5715,133.434 z M 76.4472,138.434 C 68.578,138.434 63.1781,141.699 59.7995,146.896 C 56.4209,152.093 55.0827,159.282 55.0827,167.151 C 55.0827,175.02 56.4209,182.143 59.7995,187.267 C 63.1781,192.39 68.578,195.452 76.4472,195.452 C 92.1855,195.452 112.101,182.889 112.101,167.151 C 112.101,151.413 92.1855,138.434 76.4472,138.434 z M 87.823,156.469 C 93.168,156.623 98.9465,159.202 100.447,163.821 C 102.449,169.981 96.2021,177.496 90.0427,179.498 C 86.963,180.498 84.5251,179.964 82.5513,178.388 C 80.5774,176.812 79.1126,174.115 78.1119,171.035 C 77.1113,167.956 76.7569,165.036 77.4183,162.573 C 78.0797,160.109 79.749,158.163 82.8287,157.162 C 84.3686,156.662 86.0414,156.417 87.823,156.469 z " />
      <path
         id="guadec-logo-e"
         style="opacity:1;fill:#5385b9;fill-opacity:1;fill-rule:evenodd;stroke:none;stroke-width:9.9346199;stroke-linecap:round;stroke-linejoin:round;stroke-miterlimit:4;stroke-opacity:0"
         d="M 138.571,133.434 L 238.571,133.434 L 238.571,233.434 L 138.571,233.434 L 138.571,133.434 z M 210.78,149.648 C 208.86,153.768 206.698,153.611 201.079,151.21 C 195.461,148.809 188.158,148.562 184.859,159.876 C 181.571,171.147 196.922,151.448 199.819,163.569 C 202.615,175.267 178.949,166.899 189.558,175.267 C 202.615,185.566 205.577,171.862 212.12,171.965 C 218.508,172.068 217.751,176.355 215.249,183.311 C 212.7,190.398 207.515,195.457 197.723,195.457 C 182.162,195.457 160.064,182.537 160.064,166.798 C 160.064,151.06 182.052,138.434 197.613,138.434 C 208.631,138.434 212.954,144.986 210.78,149.648 z " />
      <path
         id="guadec-logo-c"
         style="opacity:1;fill:#729fcf;fill-opacity:1;fill-rule:evenodd;stroke:none;stroke-width:9.9346199;stroke-linecap:round;stroke-linejoin:round;stroke-miterlimit:4;stroke-opacity:0"
         d="M 243.571,133.434 L 343.571,133.434 L 343.571,233.434 L 243.571,233.434 L 243.571,133.434 z M 284.993,141.322 C 291.88,137.4 297.974,137.653 303.174,140.99 C 310.407,145.631 311.778,149.857 308.272,154.559 C 301.987,162.988 299.351,155.268 288.458,160.784 C 275.539,167.326 287.153,183.23 299.482,181.169 C 308.385,179.68 300.77,164.654 315.47,162.801 C 321.805,162.002 323.112,170.439 323.112,175.671 C 323.112,181.852 319.015,187.752 311.312,191.419 C 297.243,198.118 273.729,197.046 266.359,183.919 C 258.705,170.286 271.217,149.168 284.993,141.322 z " />
    </g>
  </g>
</svg>
