<?xml version="1.0" encoding="UTF-8" standalone="no"?>
<!-- Created with Inkscape (http://www.inkscape.org/) -->
<svg
   xmlns:dc="http://purl.org/dc/elements/1.1/"
   xmlns:cc="http://web.resource.org/cc/"
   xmlns:rdf="http://www.w3.org/1999/02/22-rdf-syntax-ns#"
   xmlns:svg="http://www.w3.org/2000/svg"
   xmlns="http://www.w3.org/2000/svg"
   xmlns:sodipodi="http://sodipodi.sourceforge.net/DTD/sodipodi-0.dtd"
   xmlns:inkscape="http://www.inkscape.org/namespaces/inkscape"
   id="svg2"
   sodipodi:version="0.32"
   inkscape:version="0.45+devel"
   width="203.77296"
   height="300.98453"
   version="1.0"
   sodipodi:docbase="/home/cworth/src/slippy"
   sodipodi:docname="cworth.svg"
   inkscape:output_extension="org.inkscape.output.svg.inkscape"
   sodipodi:modified="true">
  <metadata
     id="metadata7">
    <rdf:RDF>
      <cc:Work
         rdf:about="">
        <dc:format>image/svg+xml</dc:format>
        <dc:type
           rdf:resource="http://purl.org/dc/dcmitype/StillImage" />
      </cc:Work>
    </rdf:RDF>
  </metadata>
  <defs
     id="defs5" />
  <sodipodi:namedview
     inkscape:cy="150.49227"
     inkscape:cx="101.88648"
     inkscape:zoom="1.8871403"
     inkscape:window-height="731"
     inkscape:window-width="1024"
     inkscape:pageshadow="2"
     inkscape:pageopacity="0.0"
     guidetolerance="10.0"
     gridtolerance="10.0"
     objecttolerance="10.0"
     borderopacity="1.0"
     bordercolor="#666666"
     pagecolor="#ffffff"
     id="base"
     inkscape:window-x="0"
     inkscape:window-y="0"
     inkscape:current-layer="svg2" />
  <rect
     fill="white"
     width="132"
     height="74"
     x="34"
     y="95"
     id="rect6" />
  <path
     id="path2214"
     d="M 31.103677,299.81921 C 33.506007,298.87291 33.850297,298.28366 33.378677,295.92559 C 32.971997,293.89218 33.218537,293.14702 34.297967,293.14702 C 36.010847,293.14702 36.175747,291.33661 34.793917,287.70211 C 34.061017,285.77443 34.231777,284.25272 35.473137,281.64958 C 36.385187,279.73698 36.840517,277.88123 36.484967,277.52569 C 36.129427,277.17014 33.416917,276.81919 30.457187,276.74579 C 20.586036,276.50103 14.018299,269.53476 15.047766,260.40136 C 15.324411,257.94698 16.445493,254.72865 17.539061,253.24952 C 18.632628,251.7704 19.866,248.55583 20.279888,246.10604 C 20.693776,243.65627 22.127933,238.05081 23.466907,233.64946 C 24.805877,229.24812 26.065517,224.56489 26.266117,223.24228 C 26.753027,220.03182 32.176587,209.46124 37.479147,201.38793 L 41.775817,194.84614 L 32.959217,185.7325 C 24.039997,176.51281 17.30415,166.57234 14.097375,157.89702 C 13.131681,155.28451 11.847824,153.14702 11.244359,153.14702 C 9.885534,153.14702 5.4837,148.50495 3.658372,145.14702 C 2.91094,143.77202 1.983974,138.14702 1.598448,132.64702 C 1.212923,127.14701 0.607525,120.39701 0.25312,117.64701 C -0.322529,113.18028 -0.068846,112.16512 2.631733,108.12854 C 4.55992,105.24647 6.0113,101.3959 6.639324,97.496235 C 7.180858,94.133615 8.946525,88.516925 10.563028,85.014695 C 13.523864,78.599915 14.889585,71.424623 15.138184,60.977511 C 15.300617,54.151426 17.249146,51.643049 25.641537,47.456357 L 31.272967,44.647015 L 26.022967,44.344755 C 23.135467,44.178513 20.772967,43.681278 20.772967,43.23979 C 20.772967,42.351165 36.166807,35.063459 41.942977,33.217548 C 43.961477,32.572487 46.193347,31.34541 46.902687,30.49071 C 48.848977,28.14558 58.490297,21.815357 65.494447,18.283875 C 70.922407,15.547111 72.737367,15.147015 79.724277,15.147015 L 87.732627,15.147015 L 83.252797,8.221909 C 80.788887,4.413101 78.772967,0.807456 78.772967,0.209365 C 78.772967,-0.388727 80.685467,0.339027 83.022967,1.826595 C 88.936937,5.590205 105.8358,13.13632 108.3632,13.142174 C 109.51283,13.144836 112.88783,14.483927 115.8632,16.11793 C 118.83857,17.751933 123.68974,19.595103 126.64357,20.213865 C 133.99957,21.75478 144.38832,26.559781 145.71221,29.033477 C 147.07614,31.582018 154.10164,36.444632 158.90179,38.162486 C 162.83162,39.568877 163.19228,39.475757 176.02297,33.741851 C 179.18547,32.328562 181.77297,31.316763 181.77297,31.493407 C 181.77297,31.670052 179.39113,33.455015 176.47999,35.459992 C 170.36379,39.67238 165.13259,44.839971 166.05291,45.760287 C 166.40168,46.10906 169.38794,44.988754 172.68904,43.270718 C 177.96341,40.525706 179.63555,40.154699 186.48201,40.210401 C 191.66149,40.252541 193.58426,40.552713 192.2183,41.105921 C 191.08823,41.563594 188.72573,43.575729 186.9683,45.577331 C 184.47259,48.41978 183.77297,50.125145 183.77297,53.366087 C 183.77297,57.826771 187.16891,65.977985 189.38095,66.826825 C 192.72547,68.110238 195.22239,74.544858 195.90255,83.633145 C 198.05498,112.39366 199.07632,118.49403 202.16879,121.06056 C 203.23011,121.94138 203.77297,124.00356 203.77297,127.15444 C 203.77297,131.06012 203.34695,132.19613 201.40513,133.46847 C 199.33127,134.82731 198.97938,135.98999 198.5708,142.83348 C 198.04532,151.63503 195.40373,158.0324 191.1418,160.82492 C 189.70881,161.76386 186.14883,166.23304 183.23075,170.75643 C 180.31267,175.27983 174.74091,182.33295 170.84906,186.43007 C 166.95721,190.52716 163.77297,194.196 163.77297,194.58301 C 163.77297,194.97002 165.06405,197.16774 166.64204,199.46684 C 170.2768,204.76262 177.55724,219.21247 178.14708,222.30146 C 178.39342,223.59152 179.55321,228.10133 180.72439,232.32327 C 181.89557,236.5452 183.2644,242.52224 183.76622,245.60557 C 184.26805,248.68891 185.59986,252.38278 186.7258,253.81418 C 188.15798,255.63491 188.77297,257.89319 188.77297,261.33154 C 188.77297,271.16969 183.28431,276.5353 172.95127,276.79852 C 169.47294,276.88713 166.44823,277.13842 166.2297,277.35694 C 166.01118,277.57547 167.03525,279.44486 168.50544,281.51114 C 170.75086,284.66699 170.98607,285.57614 169.97573,287.19396 C 168.20903,290.0229 168.47691,290.8559 171.38837,291.58663 C 173.63504,292.15051 173.92383,292.6427 173.43682,295.07778 C 172.93019,297.61092 173.26369,298.07423 176.57142,299.43259 C 179.92974,300.81171 173.22587,300.95181 104.27297,300.94346 C 47.344767,300.93657 28.983317,300.65444 31.103677,299.81921 z M 79.074977,159.70308 C 87.991137,156.52276 96.257117,147.95206 99.452367,138.57453 L 101.05277,133.87761 L 102.50821,138.18321 C 108.3141,155.35869 126.53489,165.53815 140.27297,159.28136 C 145.26881,157.00608 151.10986,150.62963 152.87177,145.52773 C 159.40176,126.61905 143.708,103.18926 124.49085,103.15678 C 117.86164,103.14558 112.51495,105.07434 108.43139,108.95007 C 105.2313,111.98727 101.7769,118.15754 101.76524,120.85717 C 101.76098,121.84158 100.29848,119.74013 98.515237,116.18727 C 96.225767,111.62584 93.998717,108.8341 90.936827,106.68727 C 86.965247,103.90263 85.914307,103.64701 78.436827,103.64701 C 68.684027,103.64701 64.417087,105.40489 57.859327,112.12447 C 50.942837,119.21162 48.272967,125.90207 48.272967,136.14702 C 48.272967,143.63555 48.602857,145.20822 51.045267,149.36312 C 57.040967,159.56278 68.066107,163.62987 79.074977,159.70308 z M 83.818647,136.70206 C 81.739447,134.19676 82.935497,130.68592 85.988087,130.33396 C 88.225247,130.07602 88.823327,130.49949 89.385547,132.73955 C 89.893997,134.76538 89.599337,135.8008 88.229297,136.8026 C 85.905367,138.50191 85.300957,138.48812 83.818647,136.70206 z M 116.31664,136.8026 C 114.9466,135.8008 114.65194,134.76538 115.16039,132.73955 C 115.72261,130.49949 116.32069,130.07602 118.55785,130.33396 C 121.61044,130.68592 122.80649,134.19676 120.72729,136.70206 C 119.24498,138.48812 118.64057,138.50191 116.31664,136.8026 z"
     style="fill:#fee0c3" />
  <path
     id="path2212"
     d="M 31.608437,299.88839 C 33.424357,299.01499 33.852197,298.1402 33.531637,295.95607 C 33.256527,294.08161 33.560797,293.14702 34.446157,293.14702 C 36.026007,293.14702 36.140457,291.24379 34.776347,287.65591 C 34.027327,285.68583 34.169517,284.28084 35.348707,282.00056 C 36.211637,280.33183 36.685007,278.36016 36.400627,277.6191 C 36.116257,276.87803 37.546197,274.52058 39.578277,272.38031 C 44.251307,267.45853 48.772967,260.02641 48.772967,257.26729 C 48.772967,254.80961 45.470167,251.14702 43.253917,251.14702 C 42.190577,251.14702 41.891487,250.47201 42.256947,248.89702 C 44.539457,239.06033 45.694847,231.67735 45.046367,231.07274 C 44.620997,230.67615 40.672967,228.89131 36.272967,227.10645 C 31.872967,225.32158 27.919657,223.54972 27.487837,223.16899 C 27.056007,222.78826 27.573137,220.4461 28.637007,217.9642 C 30.613407,213.35345 41.540377,195.14702 42.331217,195.14702 C 42.571637,195.14702 44.906877,196.66992 47.520657,198.53124 C 52.727297,202.239 63.046267,207.62652 68.890887,209.68861 C 73.711197,211.38933 73.688967,211.45381 74.463107,193.52993 C 74.801847,185.6869 75.347647,178.85144 75.675987,178.34002 C 76.004327,177.82861 80.688837,175.26753 86.086017,172.64874 C 95.450447,168.10498 96.204777,167.90924 102.58602,168.36733 C 110.43079,168.93046 115.05163,171.05335 123.13509,177.8079 L 128.92627,182.64702 L 128.22119,197.04771 L 127.51611,211.44839 L 130.66276,210.81906 C 136.26928,209.69776 148.93124,203.93592 155.566,199.48684 C 159.12549,197.09994 162.31572,195.15096 162.65539,195.15577 C 164.72811,195.18511 178.4909,221.17636 177.38298,222.96903 C 177.07121,223.47348 172.75642,225.35007 167.79455,227.13924 C 157.6961,230.78057 158.0613,230.12323 160.29033,240.64665 C 162.13749,249.36719 162.14685,251.14702 160.34555,251.14702 C 159.56047,251.14702 157.96003,252.36504 156.78903,253.85374 C 154.38867,256.9053 154.7163,260.66316 157.59927,263.14702 C 158.55683,263.97201 159.94601,266.11863 160.68634,267.91726 C 161.42666,269.71589 163.40281,272.34064 165.07777,273.75004 C 167.08875,275.44216 167.73193,276.55435 166.97136,277.02441 C 166.17379,277.51733 166.63977,278.88903 168.48652,281.48456 C 171.0808,285.13072 171.10718,285.31124 169.45472,288.10861 L 167.75597,290.98438 L 170.82362,291.65814 C 173.55364,292.25776 173.82469,292.63506 173.2863,295.08632 C 172.74513,297.55025 173.08166,298.00484 176.47715,299.3967 C 179.961,300.82477 174.06779,300.95508 104.77297,300.98216 C 48.214697,301.00426 29.858897,300.72985 31.608437,299.88839 z M 99.171127,208.64702 C 99.777137,207.54702 100.36177,206.48322 100.47031,206.28302 C 100.57884,206.08281 101.87703,206.87031 103.35517,208.03302 C 108.22209,211.86133 118.87018,209.65278 123.41749,203.87181 C 125.21992,201.58039 125.32382,200.57743 124.53434,193.09104 C 123.05952,179.10589 120.4955,176.59646 106.59455,175.53316 C 97.082097,174.80557 86.771517,176.8603 83.227337,180.18988 C 80.626367,182.63338 78.227957,195.96165 79.274527,202.15623 C 79.925277,206.00803 80.406667,206.54756 85.128277,208.71704 C 91.438867,211.61661 97.551897,211.58613 99.171127,208.64702 z M 93.448557,194.69538 C 89.116437,193.15048 88.150057,192.4366 89.102077,191.48458 C 89.466417,191.12024 90.832777,191.30886 92.138427,191.90376 C 97.883267,194.52129 104.21278,194.43088 113.52297,191.59831 C 117.44954,190.40367 115.97791,192.84786 111.75273,194.53844 C 106.89368,196.48265 98.658277,196.55326 93.448557,194.69538 z M 187.6622,161.02859 C 188.17907,159.71873 189.3267,157.22803 190.21248,155.49371 C 191.20188,153.5565 191.75079,150.27842 191.63579,146.99371 C 191.53283,144.05303 191.79784,137.37202 192.2247,132.14702 C 192.84444,124.56108 192.6607,121.3374 191.31274,116.14701 C 188.83004,106.58732 185.74865,102.07173 173.29886,89.748805 C 167.13001,83.642815 160.19599,75.834076 157.88994,72.396039 L 153.69712,66.145062 L 149.77488,68.146039 C 144.20214,70.989043 139.63046,70.643838 130.89883,66.720717 C 123.02302,63.182118 112.50575,61.147015 102.09431,61.147015 C 96.816397,61.147015 96.183617,61.441194 88.416667,67.505752 C 79.229667,74.679113 68.459087,81.798635 61.772967,85.117645 L 57.272967,87.351465 L 63.772967,80.633015 C 67.347967,76.937862 73.564947,71.26686 77.588477,68.030786 C 81.612007,64.794712 84.626567,62.147015 84.287497,62.147015 C 83.948427,62.147015 78.293947,64.577933 71.721987,67.549055 C 65.150027,70.520177 59.772967,72.730285 59.772967,72.460406 C 59.772967,72.190528 61.784077,69.670719 64.242097,66.860831 C 66.700117,64.050943 68.548757,61.589473 68.350187,61.390898 C 67.741067,60.781784 60.807807,63.97445 58.079927,66.120202 C 54.710627,68.77049 48.226247,77.434691 45.219287,83.304125 C 43.907057,85.865535 40.682317,90.895725 38.053197,94.482335 C 35.424067,98.068935 32.064127,102.80148 30.586657,104.99911 C 28.480287,108.13219 26.861157,109.28704 23.086657,110.34856 C 17.835073,111.82551 18.211231,111.30869 11.330214,126.5008 C 7.314585,135.36662 7.147269,136.94368 9.32901,145.3633 C 11.068859,152.07758 10.715215,153.30972 7.80433,150.6754 C 3.800287,147.05179 1.774456,140.99883 1.748521,132.5813 C 1.735076,128.21744 1.265875,122.65915 0.705852,120.22953 C -0.555938,114.75534 0.130653,111.4023 3.258822,107.76183 C 4.697735,106.08727 5.936397,103.05611 6.310101,100.29497 C 7.023866,95.021295 10.426259,84.269885 11.970137,82.409515 C 13.330049,80.770825 15.728494,66.956403 15.753292,60.619521 C 15.779183,54.003717 17.465027,51.830826 25.846967,47.609749 C 29.656267,45.691416 32.772967,44.011786 32.772967,43.877237 C 32.772967,43.742689 30.741857,43.794144 28.259377,43.991584 C 19.775259,44.666353 19.79379,43.337875 28.325467,39.253543 C 32.696597,37.160976 38.072967,34.860973 40.272967,34.142426 C 42.472967,33.423879 46.727127,30.839897 49.726657,28.400243 C 52.726187,25.960589 58.801187,22.09987 63.226657,19.820869 C 70.194027,16.232855 72.371667,15.608158 79.466637,15.162122 L 87.660307,14.647015 L 83.265367,7.681625 C 80.848137,3.85066 79.018967,0.567686 79.200517,0.386127 C 79.382077,0.204569 81.887987,1.445971 84.769207,3.144798 C 91.881787,7.338527 101.23422,11.487468 107.27297,13.127962 C 110.02297,13.87503 114.52297,15.708482 117.27297,17.2023 C 120.02297,18.696118 124.07912,20.183098 126.28664,20.506701 C 133.18006,21.517214 142.66699,25.956721 145.96864,29.71709 C 149.02784,33.201323 154.9139,37.134712 159.85512,38.996802 C 161.97418,39.795364 164.03663,39.268747 171.35512,36.060455 C 177.81966,33.226518 179.44767,32.769063 177.27297,34.397594 C 172.28689,38.131442 166.72708,43.364239 165.69298,45.296486 C 164.82437,46.919481 164.98709,47.016104 167.18296,46.181238 C 168.53875,45.665768 171.91118,44.097193 174.67726,42.695517 C 178.6042,40.705584 181.1932,40.148459 186.48973,40.153604 L 193.27297,40.160193 L 190.41427,42.044901 C 181.93247,47.636847 181.61402,60.269307 189.76894,67.644654 C 193.59708,71.106843 195.03913,75.312045 195.93647,85.630005 C 196.41562,91.139365 197.22455,100.14701 197.73411,105.64701 C 198.24366,111.14701 198.68586,115.94998 198.71677,116.32028 C 198.74768,116.69059 199.93988,118.38036 201.36611,120.07534 C 203.67326,122.81722 203.88409,123.70366 203.27768,128.11275 C 202.79674,131.60961 202.06846,133.23585 200.80362,133.63729 C 198.82468,134.26538 198.13587,136.93013 197.84946,145.0659 C 197.5712,152.96982 195.0293,158.0032 189.4977,161.60372 L 186.72243,163.41016 L 187.6622,161.02859 z M 83.082437,135.5111 C 81.609207,131.67193 86.922247,128.85124 89.105987,132.3132 C 89.868687,133.52232 89.796417,134.41384 88.842537,135.5632 C 87.131977,137.62429 83.882067,137.59489 83.082437,135.5111 z M 115.82359,135.70801 C 114.34294,133.92394 115.05316,131.36047 117.26302,130.51246 C 119.40723,129.68965 121.92861,132.05819 121.57123,134.55951 C 121.20482,137.12396 117.59704,137.84489 115.82359,135.70801 z M 150.77297,96.259445 C 142.8161,87.956245 131.59515,83.184885 119.96395,83.158885 C 116.68192,83.151545 114.8909,82.765215 115.27297,82.147015 C 116.1257,80.767275 125.03816,80.929805 132.32705,82.458015 C 139.99421,84.065545 146.69179,87.974725 151.07843,93.402635 C 154.10521,97.147885 157.34749,102.27799 156.55815,102.07292 C 156.4013,102.03218 153.79797,99.416115 150.77297,96.259445 z M 55.272967,94.727495 C 65.845077,87.928155 80.739867,86.568815 90.920607,91.474205 C 94.026797,92.970865 97.119847,94.860045 97.794027,95.672395 C 98.515797,96.542065 96.604757,96.018135 93.146397,94.398195 C 87.822707,91.904525 86.243387,91.651815 76.272967,91.698315 C 67.506867,91.739195 64.257557,92.170155 60.272967,93.820425 C 51.974407,97.257385 51.089797,97.417865 55.272967,94.727495 z"
     style="fill:#4fa9cf" />
  <path
     id="path2210"
     d="M 32.640337,299.51468 C 48.994907,292.37917 80.617977,291.24259 100.57623,297.07297 C 103.12403,297.81727 105.63972,297.55443 111.57623,295.92369 C 118.05343,294.14443 122.20427,293.79656 137.77297,293.72822 C 154.06908,293.65669 157.26358,293.91789 164.58839,295.92084 C 183.7307,301.15525 185.77233,300.98387 104.27297,300.98387 C 37.444057,300.98387 29.639837,300.8238 32.640337,299.51468 z M 38.772967,290.37043 C 41.338957,289.18755 45.742137,288.70749 55.272967,288.57151 L 68.272967,288.38603 L 57.272967,289.14688 C 51.222967,289.56534 44.472967,290.40082 42.272967,291.00351 C 36.519227,292.57974 34.695827,292.24991 38.772967,290.37043 z M 160.52565,290.56637 C 160.2063,290.24701 154.1688,289.63884 147.10899,289.21488 L 134.27297,288.44403 L 147.27297,288.30653 C 160.91845,288.16219 167.77297,288.82135 167.77297,290.27785 C 167.77297,291.23852 161.44953,291.49025 160.52565,290.56637 z M 87.272967,283.98834 C 78.472967,283.62606 68.122967,282.82787 64.272967,282.21456 C 56.136077,280.91836 36.400827,277.05957 35.998457,276.68612 C 35.847477,276.54599 37.422477,274.64429 39.498457,272.46014 C 44.239527,267.47201 48.772967,260.04565 48.772967,257.26729 C 48.772967,254.786 45.462717,251.14702 43.205577,251.14702 C 42.189717,251.14702 41.813487,250.53123 42.136347,249.39702 C 44.117867,242.4361 45.863597,231.84647 45.141477,231.16784 C 44.663797,230.71895 40.672967,228.89131 36.272967,227.10645 C 31.872967,225.32158 27.919657,223.54972 27.487837,223.16899 C 27.056007,222.78826 27.573137,220.4461 28.637007,217.9642 C 30.613407,213.35345 41.540377,195.14702 42.331217,195.14702 C 42.571637,195.14702 44.906877,196.66992 47.520657,198.53124 C 52.752087,202.25665 63.053017,207.62889 68.962847,209.71401 C 72.575787,210.98873 72.784147,210.94716 73.293177,208.85009 C 73.587297,207.6384 74.177267,200.24782 74.604227,192.42657 C 75.031197,184.60533 75.581327,178.04997 75.826747,177.85909 C 76.072167,177.66823 80.574817,175.40493 85.832627,172.82954 C 93.750837,168.95103 96.326417,168.15502 100.83263,168.19362 C 108.04993,168.25545 115.47926,171.44155 122.87599,177.64702 L 128.83583,182.64702 L 128.16231,197.05044 L 127.48878,211.45386 L 130.64909,210.8218 C 136.26792,209.69803 148.92463,203.94037 155.566,199.48684 C 159.12549,197.09994 162.31572,195.15096 162.65539,195.15577 C 164.72811,195.18511 178.4909,221.17636 177.38298,222.96903 C 177.07121,223.47348 172.75642,225.35007 167.79455,227.13924 C 157.6162,230.80939 157.79866,230.48257 160.25297,240.64702 C 162.11575,248.36169 162.14031,251.14702 160.34555,251.14702 C 159.56047,251.14702 157.96003,252.36504 156.78903,253.85374 C 154.38867,256.9053 154.7163,260.66316 157.59927,263.14702 C 158.55683,263.97201 159.94601,266.11863 160.68634,267.91726 C 161.42666,269.71589 163.38052,272.32189 165.02825,273.70837 C 166.67597,275.09483 167.8242,276.42912 167.57986,276.67345 C 166.96458,277.28875 149.95295,280.71337 140.27297,282.17065 C 128.47122,283.94734 105.45317,284.73676 87.272967,283.98834 z M 98.191177,210.54003 C 99.061167,210.20619 99.772967,209.08119 99.772967,208.04003 C 99.772967,205.59898 101.00101,205.63653 103.27297,208.14702 C 105.96544,211.12216 112.76608,210.81986 118.95801,207.44979 C 121.68365,205.96631 124.29134,204.04695 124.7529,203.18453 C 125.92922,200.98655 123.94618,184.11742 122.19331,181.41094 C 119.58795,177.38817 116.56337,176.24295 106.7164,175.55077 C 99.179787,175.02099 95.955977,175.23956 91.235267,176.60031 C 82.527317,179.1104 81.186907,180.75706 79.696397,190.7756 C 78.346037,199.85214 79.099457,205.82836 81.772967,207.24708 C 88.743597,210.94613 94.253197,212.05118 98.191177,210.54003 z M 93.522967,194.54711 C 90.910467,193.74376 88.772967,192.59763 88.772967,192.00012 C 88.772967,191.32794 89.630797,191.18686 91.022967,191.63008 C 99.399787,194.29695 102.95343,194.55707 109.08975,192.95253 C 115.28056,191.33373 117.50423,191.43019 114.74401,193.19781 C 109.91117,196.29271 101.03514,196.85707 93.522967,194.54711 z M 160.27297,283.08965 C 162.47297,282.63459 165.39797,282.28958 166.77297,282.32296 C 169.05068,282.37824 169.00622,282.45153 166.27297,283.14702 C 164.62297,283.56687 161.69797,283.91188 159.77297,283.9137 L 156.27297,283.91701 L 160.27297,283.08965 z M 41.272967,282.14702 C 37.423917,281.45785 37.489957,281.42548 43.022967,281.28893 C 46.284237,281.20844 48.772967,281.57984 48.772967,282.14702 C 48.772967,283.23757 47.363817,283.23757 41.272967,282.14702 z M 187.77297,161.01505 C 187.77297,160.39247 188.69967,158.38366 189.8323,156.55103 C 191.32237,154.14005 191.84239,151.75777 191.71351,147.93299 C 191.61554,145.02571 191.87888,138.51753 192.29871,133.47037 C 193.87523,114.51761 190.52352,106.72799 173.3916,89.528815 C 166.72635,82.837405 159.69797,74.859391 157.77297,71.799901 C 155.3422,67.936576 153.81473,66.417315 152.77297,66.8268 C 142.30738,70.94053 139.10779,70.857863 129.94697,66.237053 C 123.69996,63.086002 113.50786,61.147015 103.19166,61.147015 L 96.493457,61.147015 L 86.883207,68.493883 C 76.747907,76.242151 73.011157,78.713125 63.272967,84.106455 L 57.272967,87.429455 L 64.272967,80.228455 C 68.122967,76.267903 74.535467,70.516974 78.522967,67.448614 C 82.510467,64.380253 85.772967,61.730117 85.772967,61.559422 C 85.772967,61.11946 79.759797,63.680152 69.022967,68.692368 C 63.935467,71.067337 59.772967,72.76983 59.772967,72.475684 C 59.772967,72.181539 61.842127,69.639474 64.371087,66.826653 C 66.900057,64.013831 68.485787,61.551289 67.894927,61.354336 C 67.304077,61.157384 64.510487,62.253588 61.686957,63.790346 C 55.998737,66.886264 49.727207,74.29523 45.301947,83.147015 C 43.789667,86.172015 41.612897,89.670845 40.464687,90.922195 C 39.316467,92.173545 36.102367,96.663145 33.322237,100.89908 C 29.606577,106.56043 27.473417,108.83822 25.270207,109.49698 C 18.390453,111.55404 17.65279,112.16853 15.180572,117.90178 C 13.818009,121.06165 11.593886,125.90414 10.238076,128.66287 C 7.376388,134.48565 7.158382,138.71448 9.340999,146.06414 C 10.203416,148.96823 10.698664,151.55465 10.44155,151.81177 C 9.594533,152.65879 5.557603,147.72146 3.765763,143.64702 C 2.498732,140.76593 1.833976,135.73082 1.389331,125.64701 L 0.772001,111.64701 L 3.654025,107.42292 C 5.586195,104.59098 6.768673,101.2952 7.241873,97.422915 C 7.630076,94.246175 9.208604,88.947015 10.749712,85.647015 C 13.8194,79.073845 15.772967,69.503131 15.772967,61.037608 C 15.772967,54.034006 17.254337,52.019959 25.329647,48.044499 C 28.914297,46.279777 32.086757,44.448307 32.379547,43.974565 C 32.672337,43.500823 30.405637,43.407778 27.342427,43.767797 C 23.875377,44.175281 21.772967,44.046683 21.772967,43.42713 C 21.772967,42.4222 37.788667,34.683145 42.115927,33.597074 C 43.401767,33.274349 46.888127,31.007794 49.863387,28.560285 C 52.838657,26.112776 59.169447,22.093536 63.931817,19.628642 C 71.959247,15.473822 73.144217,15.147015 80.181817,15.147015 C 84.356947,15.147015 87.772967,14.937199 87.772967,14.680756 C 87.772967,14.424314 85.970917,11.426369 83.768397,8.018656 C 81.565887,4.610942 79.888157,1.698495 80.040097,1.546551 C 80.192047,1.394606 85.626047,3.898464 92.115667,7.11068 C 98.605277,10.322896 105.57052,13.257205 107.59397,13.631368 C 109.61742,14.005531 113.52297,15.568364 116.27297,17.104331 C 119.02297,18.640298 123.22179,20.189378 125.60369,20.546732 C 133.15199,21.679196 141.756,25.840849 147.2066,30.995797 C 150.04215,33.677542 154.58399,36.854527 157.29959,38.055764 L 162.23703,40.239831 L 169.255,37.102328 C 179.57336,32.489328 179.7939,32.481882 173.6717,36.953207 C 168.83816,40.483373 164.77297,44.884393 164.77297,46.587081 C 164.77297,47.268329 169.15413,45.593451 175.21931,42.593537 C 178.98926,40.728877 181.72433,40.156537 186.71931,40.187053 C 192.82193,40.224335 193.10091,40.321079 190.77297,41.592744 C 186.50286,43.92534 183.77297,48.58514 183.77297,53.541423 C 183.77297,59.526883 185.11302,62.707388 189.7581,67.746709 C 192.12906,70.318902 193.83463,73.271936 194.12479,75.307242 C 195.27438,83.370855 196.98769,98.380045 197.73443,106.92894 C 198.3929,114.46728 199.03149,116.91255 201.13395,119.9464 C 203.25159,123.00216 203.61326,124.40673 203.12137,127.6645 C 202.78463,129.89467 201.62876,132.35939 200.49447,133.266 C 198.87279,134.56216 198.33499,136.55617 197.79739,143.266 C 197.08328,152.17871 196.06184,155.00313 191.96369,159.39702 C 189.24634,162.31046 187.77297,162.87933 187.77297,161.01505 z M 83.783537,135.65975 C 82.030277,133.5472 83.280727,131.14702 86.134597,131.14702 C 88.919487,131.14702 90.345717,133.75197 88.667777,135.77376 C 87.184617,137.56087 85.325297,137.51746 83.783537,135.65975 z M 115.87816,135.77376 C 114.20022,133.75197 115.62645,131.14702 118.41134,131.14702 C 121.26521,131.14702 122.51566,133.5472 120.7624,135.65975 C 119.22064,137.51746 117.36132,137.56087 115.87816,135.77376 z M 151.39113,96.458355 C 144.4085,88.695805 131.77819,83.147015 121.09147,83.147015 C 117.75393,83.147015 115.77297,82.719225 115.77297,81.998485 C 115.77297,80.311175 131.36944,81.611095 136.85069,83.755245 C 143.24203,86.255405 149.10813,90.693345 152.78013,95.806515 C 154.5426,98.260715 155.8245,100.38233 155.6288,100.52123 C 155.43309,100.66012 153.52614,98.831825 151.39113,96.458355 z M 58.029017,93.663975 C 69.666707,87.396325 80.534757,86.909705 91.634947,92.159265 C 98.820507,95.557495 99.994687,97.031915 93.022967,93.902205 C 89.665147,92.394835 85.580337,91.644435 79.085927,91.341915 C 69.897927,90.913915 69.808387,90.930135 54.772967,95.745055 C 53.947967,96.009255 55.413187,95.072765 58.029017,93.663975 z"
     style="fill:#000000;fill-opacity:1" />
  <g
     id="g4111">
    <path
       id="path2164"
       d="M 66.863207,208.53169 L 76.768866,229.99396 L 93.2783,217.61189 L 66.863207,208.53169 z"
       style="fill:#c00000;fill-opacity:1;fill-rule:evenodd;stroke:none;stroke-width:0.25pt;stroke-linecap:butt;stroke-linejoin:miter;stroke-opacity:1"
       sodipodi:nodetypes="cccc" />
    <path
       id="path3138"
       d="M 93.2783,217.61189 L 92.452828,244.85245 L 98.23113,251.45623 L 103.18396,244.85245 L 104.00943,217.61189 L 93.2783,217.61189 z"
       style="fill:#c00000;fill-opacity:1;fill-rule:evenodd;stroke:none;stroke-width:0.25pt;stroke-linecap:butt;stroke-linejoin:miter;stroke-opacity:1" />
    <path
       id="path4109"
       d="M 129.59905,211.42084 L 121.34433,230.40669 L 104.8349,218.02462 L 129.59905,211.42084 z"
       style="fill:#c00000;fill-opacity:1;fill-rule:evenodd;stroke:none;stroke-width:0.25pt;stroke-linecap:butt;stroke-linejoin:miter;stroke-opacity:1" />
  </g>
  <path
     id="path2208"
     d="M 32.640337,299.51468 C 48.994907,292.37917 80.617977,291.24259 100.57623,297.07297 C 103.12403,297.81727 105.63972,297.55443 111.57623,295.92369 C 118.05343,294.14443 122.20427,293.79656 137.77297,293.72822 C 154.06908,293.65669 157.26358,293.91789 164.58839,295.92084 C 183.7307,301.15525 185.77233,300.98387 104.27297,300.98387 C 37.444057,300.98387 29.639837,300.8238 32.640337,299.51468 z M 38.772967,290.37043 C 41.338957,289.18755 45.742137,288.70749 55.272967,288.57151 L 68.272967,288.38603 L 57.272967,289.14688 C 51.222967,289.56534 44.472967,290.40082 42.272967,291.00351 C 36.519227,292.57974 34.695827,292.24991 38.772967,290.37043 z M 160.52565,290.56637 C 160.2063,290.24701 154.1688,289.63884 147.10899,289.21488 L 134.27297,288.44403 L 147.27297,288.30653 C 160.91845,288.16219 167.77297,288.82135 167.77297,290.27785 C 167.77297,291.23852 161.44953,291.49025 160.52565,290.56637 z M 160.27297,283.08965 C 162.47297,282.63459 165.39797,282.28958 166.77297,282.32296 C 169.05068,282.37824 169.00622,282.45153 166.27297,283.14702 C 164.62297,283.56687 161.69797,283.91188 159.77297,283.9137 L 156.27297,283.91701 L 160.27297,283.08965 z M 41.272967,282.14702 C 37.423917,281.45785 37.489957,281.42548 43.022967,281.28893 C 46.284237,281.20844 48.772967,281.57984 48.772967,282.14702 C 48.772967,283.23757 47.363817,283.23757 41.272967,282.14702 z M 43.322297,246.14702 C 43.988377,240.44992 46.534077,229.98105 46.605067,232.64702 C 46.634367,233.74702 45.789347,238.24702 44.727257,242.64702 C 43.561707,247.47563 43.004747,248.86311 43.322297,246.14702 z M 159.77324,244.47633 C 159.12729,241.27021 158.23581,236.95952 157.79218,234.89702 C 157.34854,232.83452 157.30048,231.14702 157.68538,231.14702 C 158.50751,231.14702 162.09891,249.1544 161.41348,249.83983 C 161.1573,250.09602 160.41919,247.68243 159.77324,244.47633 z M 98.350407,225.27232 C 98.053077,224.79122 92.739017,222.75464 86.541387,220.74656 C 80.343757,218.73848 74.662847,216.71361 73.917157,216.24685 C 72.801027,215.54823 72.756837,213.60119 73.667157,205.23338 C 74.275347,199.64275 74.779107,192.04873 74.786617,188.3578 C 74.794127,184.66687 75.049157,180.74702 75.353347,179.64702 C 75.718967,178.32489 79.223827,176.03708 85.694207,172.89702 C 93.769857,168.97792 96.425797,168.15517 100.87748,168.19362 C 108.06664,168.25572 115.53047,171.47225 122.81375,177.64702 L 128.71136,182.64702 L 128.25636,198.14702 L 127.80136,213.64702 L 122.53716,215.34045 C 119.64186,216.27184 114.77453,217.72926 111.72087,218.57917 C 108.24071,219.54778 105.09215,221.24821 103.28378,223.13574 C 100.26429,226.28741 99.249407,226.72693 98.350407,225.27232 z M 98.191177,210.54003 C 99.061167,210.20619 99.772967,209.08119 99.772967,208.04003 C 99.772967,205.59898 101.00101,205.63653 103.27297,208.14702 C 105.96544,211.12216 112.76608,210.81986 118.95801,207.44979 C 121.68365,205.96631 124.29134,204.04695 124.7529,203.18453 C 125.92922,200.98655 123.94618,184.11742 122.19331,181.41094 C 119.58795,177.38817 116.56337,176.24295 106.7164,175.55077 C 99.179787,175.02099 95.955977,175.23956 91.235267,176.60031 C 82.527317,179.1104 81.186907,180.75706 79.696397,190.7756 C 78.346037,199.85214 79.099457,205.82836 81.772967,207.24708 C 88.743597,210.94613 94.253197,212.05118 98.191177,210.54003 z M 93.522967,194.54711 C 90.910467,193.74376 88.772967,192.59763 88.772967,192.00012 C 88.772967,191.32794 89.630797,191.18686 91.022967,191.63008 C 99.399787,194.29695 102.95343,194.55707 109.08975,192.95253 C 115.28056,191.33373 117.50423,191.43019 114.74401,193.19781 C 109.91117,196.29271 101.03514,196.85707 93.522967,194.54711 z M 187.77297,161.01505 C 187.77297,160.39247 188.69967,158.38366 189.8323,156.55103 C 191.32237,154.14005 191.84239,151.75777 191.71351,147.93299 C 191.61554,145.02571 191.87888,138.51753 192.29871,133.47037 C 193.87523,114.51761 190.52352,106.72799 173.3916,89.528815 C 166.72635,82.837405 159.69797,74.859391 157.77297,71.799901 C 155.3422,67.936576 153.81473,66.417315 152.77297,66.8268 C 142.30738,70.94053 139.10779,70.857863 129.94697,66.237053 C 123.69996,63.086002 113.50786,61.147015 103.19166,61.147015 L 96.493457,61.147015 L 86.883207,68.493883 C 76.747907,76.242151 73.011157,78.713125 63.272967,84.106455 L 57.272967,87.429455 L 64.272967,80.228455 C 68.122967,76.267903 74.535467,70.516974 78.522967,67.448614 C 82.510467,64.380253 85.772967,61.730117 85.772967,61.559422 C 85.772967,61.11946 79.759797,63.680152 69.022967,68.692368 C 63.935467,71.067337 59.772967,72.76983 59.772967,72.475684 C 59.772967,72.181539 61.842127,69.639474 64.371087,66.826653 C 66.900057,64.013831 68.485787,61.551289 67.894927,61.354336 C 67.304077,61.157384 64.510487,62.253588 61.686957,63.790346 C 55.998737,66.886264 49.727207,74.29523 45.301947,83.147015 C 43.789667,86.172015 41.612897,89.670845 40.464687,90.922195 C 39.316467,92.173545 36.102367,96.663145 33.322237,100.89908 C 29.606577,106.56043 27.473417,108.83822 25.270207,109.49698 C 18.390453,111.55404 17.65279,112.16853 15.180572,117.90178 C 13.818009,121.06165 11.593886,125.90414 10.238076,128.66287 C 7.376388,134.48565 7.158382,138.71448 9.340999,146.06414 C 10.203416,148.96823 10.698664,151.55465 10.44155,151.81177 C 9.594533,152.65879 5.557603,147.72146 3.765763,143.64702 C 2.498732,140.76593 1.833976,135.73082 1.389331,125.64701 L 0.772001,111.64701 L 3.654025,107.42292 C 5.586195,104.59098 6.768673,101.2952 7.241873,97.422915 C 7.630076,94.246175 9.208604,88.947015 10.749712,85.647015 C 13.8194,79.073845 15.772967,69.503131 15.772967,61.037608 C 15.772967,54.034006 17.254337,52.019959 25.329647,48.044499 C 28.914297,46.279777 32.086757,44.448307 32.379547,43.974565 C 32.672337,43.500823 30.405637,43.407778 27.342427,43.767797 C 23.875377,44.175281 21.772967,44.046683 21.772967,43.42713 C 21.772967,42.4222 37.788667,34.683145 42.115927,33.597074 C 43.401767,33.274349 46.888127,31.007794 49.863387,28.560285 C 52.838657,26.112776 59.169447,22.093536 63.931817,19.628642 C 71.959247,15.473822 73.144217,15.147015 80.181817,15.147015 C 84.356947,15.147015 87.772967,14.937199 87.772967,14.680756 C 87.772967,14.424314 85.970917,11.426369 83.768397,8.018656 C 81.565887,4.610942 79.888157,1.698495 80.040097,1.546551 C 80.192047,1.394606 85.626047,3.898464 92.115667,7.11068 C 98.605277,10.322896 105.57052,13.257205 107.59397,13.631368 C 109.61742,14.005531 113.52297,15.568364 116.27297,17.104331 C 119.02297,18.640298 123.22179,20.189378 125.60369,20.546732 C 133.15199,21.679196 141.756,25.840849 147.2066,30.995797 C 150.04215,33.677542 154.58399,36.854527 157.29959,38.055764 L 162.23703,40.239831 L 169.255,37.102328 C 179.57336,32.489328 179.7939,32.481882 173.6717,36.953207 C 168.83816,40.483373 164.77297,44.884393 164.77297,46.587081 C 164.77297,47.268329 169.15413,45.593451 175.21931,42.593537 C 178.98926,40.728877 181.72433,40.156537 186.71931,40.187053 C 192.82193,40.224335 193.10091,40.321079 190.77297,41.592744 C 186.50286,43.92534 183.77297,48.58514 183.77297,53.541423 C 183.77297,59.526883 185.11302,62.707388 189.7581,67.746709 C 192.12906,70.318902 193.83463,73.271936 194.12479,75.307242 C 195.27438,83.370855 196.98769,98.380045 197.73443,106.92894 C 198.3929,114.46728 199.03149,116.91255 201.13395,119.9464 C 203.25159,123.00216 203.61326,124.40673 203.12137,127.6645 C 202.78463,129.89467 201.62876,132.35939 200.49447,133.266 C 198.87279,134.56216 198.33499,136.55617 197.79739,143.266 C 197.08328,152.17871 196.06184,155.00313 191.96369,159.39702 C 189.24634,162.31046 187.77297,162.87933 187.77297,161.01505 z M 83.783537,135.65975 C 82.030277,133.5472 83.280727,131.14702 86.134597,131.14702 C 88.919487,131.14702 90.345717,133.75197 88.667777,135.77376 C 87.184617,137.56087 85.325297,137.51746 83.783537,135.65975 z M 115.87816,135.77376 C 114.20022,133.75197 115.62645,131.14702 118.41134,131.14702 C 121.26521,131.14702 122.51566,133.5472 120.7624,135.65975 C 119.22064,137.51746 117.36132,137.56087 115.87816,135.77376 z M 151.39113,96.458355 C 144.4085,88.695805 131.77819,83.147015 121.09147,83.147015 C 117.75393,83.147015 115.77297,82.719225 115.77297,81.998485 C 115.77297,80.311175 131.36944,81.611095 136.85069,83.755245 C 143.24203,86.255405 149.10813,90.693345 152.78013,95.806515 C 154.5426,98.260715 155.8245,100.38233 155.6288,100.52123 C 155.43309,100.66012 153.52614,98.831825 151.39113,96.458355 z M 58.029017,93.663975 C 69.666707,87.396325 80.534757,86.909705 91.634947,92.159265 C 98.820507,95.557495 99.994687,97.031915 93.022967,93.902205 C 89.665147,92.394835 85.580337,91.644435 79.085927,91.341915 C 69.897927,90.913915 69.808387,90.930135 54.772967,95.745055 C 53.947967,96.009255 55.413187,95.072765 58.029017,93.663975 z"
     style="fill:#323231" />
  <path
     id="path2206"
     d="M 36.272967,298.7805 C 43.355737,295.73906 52.470487,294.64702 70.772967,294.64702 C 85.556167,294.64702 90.735157,295.02163 96.550887,296.51157 C 103.43089,298.2742 104.18575,298.28647 110.35731,296.73622 C 122.20807,293.75941 136.84897,292.67935 148.6394,293.91214 C 157.65383,294.85467 174.27656,298.4484 175.68964,299.7602 C 175.9188,299.97296 143.9688,300.12941 104.68964,300.10788 C 45.514147,300.07545 33.787187,299.84793 36.272967,298.7805 z M 43.043797,289.54284 C 43.376097,289.21055 44.238597,289.17504 44.960467,289.46391 C 45.758197,289.78312 45.521247,290.02008 44.356297,290.06806 C 43.302137,290.11149 42.711507,289.87514 43.043797,289.54284 z M 159.02297,289.43077 C 160.53547,289.20164 163.01047,289.20164 164.52297,289.43077 C 166.03547,289.65989 164.79797,289.84735 161.77297,289.84735 C 158.74797,289.84735 157.51047,289.65989 159.02297,289.43077 z M 49.522967,288.48474 C 50.210467,288.20733 51.335467,288.20733 52.022967,288.48474 C 52.710467,288.76215 52.147967,288.98913 50.772967,288.98913 C 49.397967,288.98913 48.835467,288.76215 49.522967,288.48474 z M 87.037907,220.74588 C 80.308627,218.45293 74.353817,216.12787 73.804997,215.57905 C 73.145187,214.91924 73.138157,212.55979 73.784267,208.61411 C 74.321677,205.33221 74.768937,198.82202 74.778177,194.14702 C 74.809397,178.3499 74.486127,178.93205 86.501807,173.03469 C 96.390087,168.18149 97.280117,167.93126 102.48014,168.54242 C 109.55023,169.37337 117.02648,172.94723 123.01816,178.36017 C 128.38038,183.20445 128.39671,183.28503 127.98698,202.8836 L 127.77297,213.12018 L 124.15085,214.6336 C 122.15868,215.46598 119.70056,216.14702 118.68836,216.14702 C 115.40511,216.14702 105.46142,220.36766 103.04009,222.78899 C 101.74317,224.0859 100.36502,225.09477 99.977517,225.03093 C 99.590017,224.96708 93.767187,223.0388 87.037907,220.74588 z M 97.838707,211.11184 C 98.902547,210.54248 99.772967,209.41748 99.772967,208.61184 C 99.772967,206.72164 101.18883,206.73825 102.77297,208.64702 C 104.46975,210.69151 113.9379,210.61912 118.07263,208.53005 C 125.19662,204.93064 125.85394,203.65524 125.19255,194.71499 C 124.10031,179.95069 122.06708,177.19503 110.75165,175.14315 C 100.78351,173.33559 87.353137,175.66532 82.688357,180.01122 C 81.179047,181.41736 80.165627,183.89217 79.667947,187.3872 C 78.621687,194.73472 78.633797,204.37883 79.691367,206.04923 C 80.814907,207.82382 90.518857,212.05362 93.588707,212.10686 C 94.862367,212.12895 96.774867,211.68118 97.838707,211.11184 z M 92.022967,193.90027 C 90.235467,193.32686 88.772967,192.49276 88.772967,192.04672 C 88.772967,191.60068 90.629547,191.89078 92.898697,192.69138 C 95.167847,193.49197 99.386267,194.14702 102.27297,194.14702 C 105.15967,194.14702 109.37809,193.49197 111.64724,192.69138 C 113.91639,191.89078 115.77297,191.59455 115.77297,192.03308 C 115.77297,194.71062 98.726687,196.05077 92.022967,193.90027 z M 188.82925,159.499 C 189.41192,157.96645 190.39801,156.09882 191.02057,155.34868 C 191.64312,154.59855 192.07739,151.65881 191.9856,148.81591 C 191.89382,145.97302 192.30478,139.93542 192.89885,135.39902 C 193.69533,129.31699 193.67403,125.3779 192.81773,120.39902 C 190.8042,108.69146 188.11384,104.35725 173.54035,89.342875 C 160.70039,76.114476 153.65565,66.734151 155.42249,65.21832 C 161.38575,60.102264 166.5245,56.665766 170.46882,55.156223 C 175.10914,53.380308 175.18772,53.284303 172.77297,52.340938 C 152.26997,44.331064 151.39249,43.850575 143.23242,36.165115 C 138.81012,32.000026 132.34846,26.693473 128.87319,24.372775 C 123.16536,20.561234 122.87926,20.215042 125.91374,20.791748 C 133.45619,22.225198 142.29706,26.531382 146.27297,30.708254 C 150.11648,34.746039 159.18166,40.147015 162.1153,40.147015 C 162.89014,40.147015 166.04147,39.03372 169.11824,37.673027 L 174.71236,35.199039 L 169.74267,39.989189 C 161.91991,47.529319 163.04819,49.056066 172.80383,44.131438 C 176.54555,42.242622 181.11207,40.874278 185.02531,40.469307 L 191.27297,39.822753 L 187.54835,43.959673 C 185.49981,46.234978 183.54052,49.224992 183.19437,50.604147 C 182.08964,55.00577 184.69335,63.000728 188.45739,66.764773 C 192.24325,70.550627 194.77297,75.69778 194.77297,79.614895 C 194.77297,82.681955 193.3236,82.790145 186.02297,80.268035 C 183.13547,79.270505 180.77297,78.805715 180.77297,79.235165 C 180.77297,79.901925 183.51582,83.416485 195.09227,97.583245 C 196.34176,99.112315 197.05287,102.05133 197.3627,106.96694 C 197.85035,114.70387 198.98076,118.61415 201.55068,121.45387 C 203.98636,124.14527 203.25247,131.09993 200.26399,133.64702 C 198.26742,135.3487 197.86311,136.76572 197.55344,143.14702 C 197.13636,151.74147 194.93833,157.18102 190.64812,160.23592 L 187.76985,162.28543 L 188.82925,159.499 z M 8.064254,149.89702 C 3.844333,145.28193 2.351191,140.9233 2.154889,132.64702 C 2.050527,128.24702 1.642497,122.14238 1.248155,119.08115 C 0.296419,111.69293 1.367048,109.82554 13.18183,98.266425 C 22.616534,89.035875 22.712243,88.895185 19.165301,89.470775 C 17.182771,89.792495 13.808461,90.969035 11.666834,92.085315 C 9.525207,93.201595 7.772967,93.953135 7.772967,93.755395 C 7.772967,93.557655 8.864468,90.927795 10.198524,87.911255 C 11.987899,83.865165 13.941137,81.459835 17.645584,78.740525 C 23.223537,74.645927 27.290897,68.939103 26.360067,66.513409 C 25.738267,64.893001 21.35982,64.936707 17.522967,66.601621 C 15.976988,67.272462 15.772967,66.723033 15.772967,61.888862 C 15.772967,54.80885 17.820242,52.188829 27.126777,47.358705 L 34.272967,43.649812 L 28.392057,43.148414 L 22.511145,42.647015 L 27.392057,40.255541 C 30.076557,38.94023 34.876897,36.829731 38.059477,35.565543 L 43.845977,33.267019 L 40.624117,37.457017 C 38.852087,39.761516 36.923157,42.302854 36.337607,43.104435 C 35.752057,43.906016 38.087387,42.236359 41.527237,39.394086 C 50.347007,32.106498 55.344707,29.407088 68.102547,25.039956 C 85.188507,19.191261 94.004127,19.800876 110.75508,27.989446 C 115.4464,30.282762 120.76157,34.023411 125.00508,38.018143 C 131.9008,44.509604 132.95745,46.147015 130.25077,46.147015 C 128.42181,46.147015 114.80329,39.390558 108.23079,35.222402 C 101.14299,30.727449 95.239617,29.871691 79.502947,31.057986 C 62.192627,32.362909 57.051247,34.213723 49.361837,41.908303 C 38.020147,53.257619 27.942017,71.274524 28.952977,78.393675 C 29.223847,80.301145 29.770887,79.840385 32.516927,75.391814 C 34.301097,72.501454 37.451097,68.974839 39.516927,67.554892 C 53.708447,57.800332 60.643167,54.006848 68.646927,51.61997 C 73.391247,50.205121 81.097967,47.832404 85.772967,46.347266 C 101.07995,41.484598 109.91942,43.2147 128.92475,54.793122 C 133.78311,57.752936 139.89898,61.043856 142.51556,62.106277 L 147.27297,64.037952 L 141.71875,64.092484 C 137.26882,64.136173 135.26901,63.579092 131.66036,61.290554 C 110.13354,47.638647 72.096907,50.138803 50.505767,66.624864 C 44.334127,71.337265 40.788937,77.526056 40.065767,84.849855 C 39.587267,89.695775 38.597067,92.003155 34.031127,98.911775 C 28.152397,107.80674 25.646917,110.14701 22.002712,110.14701 C 19.218371,110.14701 15.232181,114.17497 14.293629,117.93685 C 13.921743,119.42744 12.061123,123.93113 10.15892,127.94505 C 6.457899,135.75475 6.399196,137.11176 9.317444,147.39702 C 10.058692,150.00952 10.542863,152.14702 10.393381,152.14702 C 10.243899,152.14702 9.195792,151.13452 8.064254,149.89702 z M 83.913757,135.81665 C 82.214557,133.76925 83.608577,130.9815 86.150247,131.34414 C 87.663487,131.56006 88.272967,132.36089 88.272967,134.13332 C 88.272967,136.98607 85.706717,137.97705 83.913757,135.81665 z M 116.1346,135.64702 C 115.257,133.36003 116.48644,131.14702 118.6346,131.14702 C 120.99983,131.14702 122.21419,133.91045 120.66778,135.77376 C 119.16326,137.5866 116.85411,137.52203 116.1346,135.64702 z M 146.77297,91.593855 C 142.13052,88.066315 134.26688,84.635265 127.27297,83.085625 C 123.85321,82.327915 124.14334,82.271455 129.27297,82.696385 C 136.48588,83.293895 144.01955,86.742725 148.73163,91.604365 C 152.9775,95.984995 152.54896,95.982695 146.77297,91.593855 z M 66.772967,90.509975 C 71.877967,88.819745 85.063527,89.073985 88.292407,90.924915 C 89.904307,91.848935 89.528417,91.928735 86.272967,91.353635 C 81.218037,90.460655 72.601417,90.447325 66.772967,91.323455 L 62.272967,91.999905 L 66.772967,90.509975 z"
     style="fill:#010101" />
  <path
     style="fill:#c00000;fill-opacity:1;fill-rule:evenodd;stroke:none;stroke-width:0.25pt;stroke-linecap:butt;stroke-linejoin:miter;stroke-opacity:1"
     d="M 25.589622,224.21567 L 29.568942,215.41321 L 51.24048,224.38876 L 47.051886,232.47038 L 25.589622,224.21567 z"
     id="path5090"
     sodipodi:nodetypes="ccccc" />
  <path
     style="fill:#c00000;fill-opacity:1;fill-rule:evenodd;stroke:none;stroke-width:0.25pt;stroke-linecap:butt;stroke-linejoin:miter;stroke-opacity:1"
     d="M 178.83009,223.36275 L 174.85077,214.56029 L 153.17924,223.53584 L 157.36783,231.61746 L 178.83009,223.36275 z"
     id="path6061"
     sodipodi:nodetypes="ccccc" />
</svg>
